<?xml version="1.0" encoding="UTF-8"?>
<svg width="1017px" height="142px" viewBox="0 0 1017 142" version="1.1" xmlns="http://www.w3.org/2000/svg" xmlns:xlink="http://www.w3.org/1999/xlink">
    <!-- Generator: Sketch 50.2 (55047) - http://www.bohemiancoding.com/sketch -->
    <title>Group 2</title>
    <desc>Created with Sketch.</desc>
    <defs></defs>
    <g id="Page-1" stroke="none" stroke-width="1" fill="none" fill-rule="evenodd">
        <g id="Artboard-1" transform="translate(-159.000000, -104.000000)">
            <g id="Group-2" transform="translate(159.000000, 103.000000)">
                <g id="Group" fill="#FAFAFA">
                    <polygon id="Fill-2" points="516.803 35.916 552.752 35.916 552.752 19.695 516.803 19.695"></polygon>
                    <g id="Group-25" transform="translate(0.000000, 0.930000)">
                        <path d="M26.5673,36.5704 C26.6523,39.3734 27.3383,41.4054 28.9633,42.7364 C30.6743,44.0674 32.9853,44.7684 36.4063,44.7684 C41.7973,44.7684 47.6143,43.7174 47.6143,39.6534 C47.6143,38.7424 47.1873,37.9724 46.5043,37.3414 C42.9953,34.1184 13.4753,31.7364 5.1763,25.7814 C1.8403,23.4004 0.8133,19.8274 0.8133,16.9544 C0.8133,5.8844 13.2193,0.9104 37.9463,0.9104 C64.2133,0.9104 72.1713,6.8654 72.5143,17.3034 L47.0163,17.3034 C46.8453,14.5024 45.7333,12.7504 43.8513,11.6984 C42.0533,10.6474 39.4863,10.2984 36.2353,10.2984 C30.7593,10.2984 27.8513,11.9804 27.8513,14.5724 C27.8513,15.3434 28.1923,16.3224 28.9633,16.8844 C32.9853,20.0374 61.5623,22.2794 69.7763,28.3034 C72.1713,30.0564 74.6523,32.7874 74.6523,37.6934 C74.6523,47.7104 63.8713,54.1564 35.7233,54.1564 C2.1823,54.1564 0.5563,45.9594 0.0443,36.5704 L26.5673,36.5704 Z" id="Fill-3"></path>
                        <path d="M131.4841,33.3489 L121.9011,15.6929 L111.8911,33.3489 L131.4841,33.3489 Z M106.8421,2.2409 L139.2711,2.2409 L170.7571,52.8259 L142.0941,52.8259 L137.5601,44.4189 L105.6441,44.4189 L100.8541,52.8259 L75.3561,52.8259 L106.8421,2.2409 Z" id="Fill-5"></path>
                        <polygon id="Fill-7" points="176.2181 2.2412 214.2931 2.2412 235.0841 36.1502 235.3411 36.1502 235.3411 2.2412 257.9301 2.2412 257.9301 52.8252 221.0531 52.8252 198.9781 16.8142 198.8051 16.8142 198.8051 52.8252 176.2181 52.8252"></polygon>
                        <path d="M317.1313,21.0181 C316.4463,14.7821 313.1953,11.9801 306.1793,11.9801 C296.0823,11.9801 292.6603,19.1261 292.6603,27.5321 C292.6603,35.9411 296.0823,43.0861 306.1793,43.0861 C314.0493,43.0861 317.9003,40.0751 318.1563,33.5591 L344.6823,33.5591 C344.5113,38.1131 343.9113,42.5271 339.1203,46.3091 C332.1903,51.7741 320.0403,54.1561 306.7773,54.1561 C275.8033,54.1561 265.6223,43.7181 265.6223,27.5321 C265.6223,15.5531 272.2113,0.9101 306.7773,0.9101 C322.2633,0.9101 333.0443,3.2921 338.4353,7.4961 C342.2853,10.5081 343.5693,13.5911 343.6543,21.0181 L317.1313,21.0181 Z" id="Fill-9"></path>
                        <polygon id="Fill-11" points="369.9938 14.572 349.7158 14.572 349.7158 2.241 416.2828 2.241 416.2828 14.572 396.0048 14.572 396.0048 52.825 369.9938 52.825"></polygon>
                        <path d="M424.3144,2.2412 L449.4684,2.2412 L449.4684,29.9862 C449.4684,39.6532 453.5754,42.6662 461.4474,42.6662 C469.3204,42.6662 473.4264,39.6532 473.4264,29.9862 L473.4264,2.2412 L498.0684,2.2412 L498.0684,31.8062 C498.0684,39.7932 496.1854,43.1562 492.1634,46.5892 C485.9184,51.9142 475.1374,54.1562 461.1914,54.1562 C447.2434,54.1562 436.4644,51.9142 430.2174,46.5892 C426.1964,43.1562 424.3144,39.7932 424.3144,31.8062 L424.3144,2.2412 Z" id="Fill-13"></path>
                        <path d="M625.4699,21.0181 C624.7849,14.7821 621.5339,11.9801 614.5179,11.9801 C604.4209,11.9801 600.9989,19.1261 600.9989,27.5321 C600.9989,35.9411 604.4209,43.0861 614.5179,43.0861 C622.3879,43.0861 626.2389,40.0751 626.4949,33.5591 L653.0209,33.5591 C652.8499,38.1131 652.2499,42.5271 647.4589,46.3091 C640.5289,51.7741 628.3789,54.1561 615.1159,54.1561 C584.1419,54.1561 573.9609,43.7181 573.9609,27.5321 C573.9609,15.5531 580.5499,0.9101 615.1159,0.9101 C630.6019,0.9101 641.3829,3.2921 646.7739,7.4961 C650.6239,10.5081 651.9079,13.5911 651.9929,21.0181 L625.4699,21.0181 Z" id="Fill-15"></path>
                        <path d="M702.0391,12.4001 C693.4831,12.4001 687.2371,17.1641 687.2371,27.5321 C687.2371,37.9031 693.4831,42.6671 702.0391,42.6671 C710.5951,42.6671 716.8411,37.9031 716.8411,27.5321 C716.8411,17.1641 710.5951,12.4001 702.0391,12.4001 M735.3241,45.3981 C728.6501,50.6531 717.9541,54.1561 702.0391,54.1561 C671.8361,54.1561 660.7131,42.6671 660.7131,27.5321 C660.7131,17.7251 665.5041,10.6481 672.6071,6.5151 C678.5101,3.0821 686.1261,0.9101 702.0391,0.9101 C732.2421,0.9101 743.3651,12.4001 743.3651,27.5321 C743.3651,35.3091 740.4561,41.4061 735.3241,45.3981" id="Fill-17"></path>
                        <polygon id="Fill-19" points="751.0577 2.2412 790.5017 2.2412 803.4207 36.1502 803.5917 36.1502 816.0857 2.2412 855.6987 2.2412 855.6987 52.8252 831.5717 52.8252 831.5717 14.7822 831.4007 14.7822 814.4577 52.8252 789.3037 52.8252 773.3887 14.7822 773.1327 14.7822 773.1327 52.8252 751.0577 52.8252"></polygon>
                        <path d="M890.6898,25.9218 L895.9928,25.9218 C905.2338,25.9218 908.5718,24.2408 908.5718,19.2658 C908.5718,15.0618 906.0048,12.8898 898.5598,12.8898 L890.6898,12.8898 L890.6898,25.9218 Z M864.6788,2.2408 L908.7428,2.2408 C923.6308,2.2408 934.0678,6.6548 934.0678,19.8268 C934.0678,32.1578 924.0578,36.5708 911.0518,36.5708 L890.6898,36.5708 L890.6898,52.8258 L864.6788,52.8258 L864.6788,2.2408 Z" id="Fill-21"></path>
                        <path d="M942.274,2.2412 L967.428,2.2412 L967.428,29.9862 C967.428,39.6532 971.535,42.6662 979.407,42.6662 C987.279,42.6662 991.386,39.6532 991.386,29.9862 L991.386,2.2412 L1016.028,2.2412 L1016.028,31.8062 C1016.028,39.7932 1014.145,43.1562 1010.123,46.5892 C1003.878,51.9142 993.097,54.1562 979.151,54.1562 C965.203,54.1562 954.424,51.9142 948.177,46.5892 C944.156,43.1562 942.274,39.7932 942.274,31.8062 L942.274,2.2412 Z" id="Fill-23"></path>
                    </g>
                </g>
                <path d="M19.656,141.456 L11.648,141.456 L0,98.616 L8.008,98.616 L14.84,125.104 C15.96,129.416 16.184,132.16 16.184,132.16 L16.296,132.16 C16.296,132.16 16.576,129.416 17.752,125.16 L24.976,98.616 L32.536,98.616 L39.816,125.104 C40.992,129.416 41.44,132.16 41.44,132.16 L41.552,132.16 C41.552,132.16 41.832,129.416 42.896,125.16 L49.616,98.616 L56.896,98.616 L45.248,141.456 L37.352,141.456 L29.904,114.52 C28.728,110.208 28.504,107.744 28.504,107.744 L28.392,107.744 C28.392,107.744 28.168,110.208 26.992,114.464 L19.656,141.456 Z M65.088,120.176 C65.088,105.616 73.6,98 84.968,98 C96.728,98 104.848,105.504 104.848,120.176 C104.848,134.736 96.56,142.352 84.968,142.352 C72.928,142.352 65.088,134.792 65.088,120.176 Z M84.912,136.528 C91.968,136.528 96.504,130.872 96.504,120.232 C96.504,109.424 91.8,103.768 84.912,103.768 C77.912,103.768 73.488,109.2 73.488,120.232 C73.488,130.984 77.688,136.528 84.912,136.528 Z M125.64,118.776 L133.2,118.776 C137.568,118.776 141.208,116.76 141.208,111.328 C141.208,106.176 137.344,104.216 133.368,104.216 L125.64,104.216 L125.64,118.776 Z M141.6,141.456 L133.256,124.488 L125.64,124.488 L125.64,141.456 L117.8,141.456 L117.8,98.616 L134.152,98.616 C137.008,98.616 140.032,99.12 142.608,100.296 C146.472,102.144 149.216,105.448 149.216,110.992 C149.216,118.272 144.568,121.464 140.592,122.808 L140.592,122.92 L150.168,141.456 L141.6,141.456 Z M170.176,128.072 L170.176,141.456 L162.336,141.456 L162.336,98.616 L170.176,98.616 L170.176,118.776 L187.312,98.616 L196.16,98.616 L180.368,116.536 L197.056,141.456 L187.984,141.456 L175.104,122.416 L170.176,128.072 Z M226.768,141.456 L226.768,98.616 L238.192,98.616 L247.04,124.376 C248.272,127.96 248.888,130.424 248.888,130.424 L249,130.424 C249,130.424 249.56,127.96 250.792,124.32 L259.696,98.616 L271.064,98.616 L271.064,141.456 L263.28,141.456 L263.28,106.792 L263.112,106.792 C263.112,106.792 262.328,110.096 260.648,115.024 L251.632,141.456 L245.472,141.456 L236.568,115.024 C234.888,110.096 234.104,106.792 234.104,106.792 L233.936,106.792 L233.936,141.456 L226.768,141.456 Z M301.656,105.56 C301.6,105.784 301.04,108.36 299.976,111.496 L295.496,124.936 L307.872,124.936 L303.392,111.496 C302.272,108.192 301.768,105.56 301.768,105.56 L301.656,105.56 Z M313.416,141.456 L309.832,130.816 L293.536,130.816 L289.952,141.456 L282.448,141.456 L297.512,98.616 L306.36,98.616 L321.592,141.456 L313.416,141.456 Z M332.864,141.456 L332.864,98.616 L341.824,98.616 L357.504,124.88 C359.408,128.072 360.248,130.48 360.248,130.48 L360.416,130.48 L360.416,98.616 L367.584,98.616 L367.584,141.456 L358.96,141.456 L343.056,114.912 C340.984,111.496 340.144,109.256 340.144,109.256 L340.032,109.256 L340.032,141.456 L332.864,141.456 Z M381.656,126.728 L381.656,98.616 L389.44,98.616 L389.44,123.48 C389.44,126.84 389.496,130.76 391.232,133 C392.968,135.184 395.488,136.136 398.736,136.136 C402.096,136.136 404.672,135.184 406.352,133 C408.144,130.76 408.032,126.84 408.032,123.48 L408.032,98.616 L415.704,98.616 L415.704,126.728 C415.704,137.536 408.872,142.296 398.624,142.296 C388.376,142.296 381.656,137.592 381.656,126.728 Z M444.616,105.56 C444.56,105.784 444,108.36 442.936,111.496 L438.456,124.936 L450.832,124.936 L446.352,111.496 C445.232,108.192 444.728,105.56 444.728,105.56 L444.616,105.56 Z M456.376,141.456 L452.792,130.816 L436.496,130.816 L432.912,141.456 L425.408,141.456 L440.472,98.616 L449.32,98.616 L464.552,141.456 L456.376,141.456 Z M475.824,141.456 L475.824,98.616 L483.664,98.616 L483.664,135.184 L503.096,135.184 L503.096,141.456 L475.824,141.456 Z" id="WORK-MANUAL" fill="#FFFFFF"></path>
            </g>
        </g>
    </g>
</svg>