<svg id="Group_220" data-name="Group 220" xmlns="http://www.w3.org/2000/svg" viewBox="0 0 213 11.195">
  <rect id="Rectangle_518" data-name="Rectangle 518" width="7.526" height="3.396" transform="translate(108.345 3.753)"/>
  <g id="Group_210" data-name="Group 210">
    <path id="Path_13" data-name="Path 13" d="M5.556,7.484a1.686,1.686,0,0,0,.5,1.3A2.447,2.447,0,0,0,7.61,9.2c1.132,0,2.348-.231,2.348-1.069a.627.627,0,0,0-.231-.482C8.994,6.981,2.809,6.478,1.069,5.22A2.27,2.27,0,0,1,.147,3.375C.168,1.048,2.767,0,7.946,0c5.514,0,7.17,1.258,7.254,3.438H9.853a1.313,1.313,0,0,0-.671-1.174,3.138,3.138,0,0,0-1.593-.294c-1.153,0-1.761.356-1.761.9a.567.567,0,0,0,.231.482c.839.671,6.834,1.132,8.554,2.39A2.319,2.319,0,0,1,15.64,7.715c0,2.1-2.264,3.459-8.155,3.459C.44,11.153.1,9.434,0,7.484Z"/>
    <path id="Path_14" data-name="Path 14" d="M81.9,1.3H88.7l6.6,10.608H89.283l-.943-1.761H81.652l-1.006,1.761H75.3Zm5.157,6.52L85.049,4.109l-2.1,3.711Z" transform="translate(-59.514 -1.027)"/>
    <path id="Path_15" data-name="Path 15" d="M176.121,1.3h7.987l4.34,7.107h.063V1.3h4.738V11.908h-7.736L180.88,4.361h-.042v7.547H176.1V1.3Z" transform="translate(-139.181 -1.027)"/>
    <path id="Path_16" data-name="Path 16" d="M276.318,4.372c-.147-1.3-.818-1.887-2.306-1.887-2.117,0-2.83,1.488-2.83,3.27,0,1.761.713,3.27,2.83,3.27,1.656,0,2.453-.629,2.516-1.992h5.556a3.177,3.177,0,0,1-1.174,2.683c-1.447,1.153-4,1.635-6.772,1.635-6.5,0-8.637-2.18-8.637-5.577C265.5,3.261,266.884.2,274.137.2c3.25,0,5.514.5,6.646,1.384.818.629,1.069,1.279,1.09,2.83h-5.556Z" transform="translate(-209.839 -0.158)"/>
    <path id="Path_17" data-name="Path 17" d="M353.856,3.9H349.6V1.3h13.962V3.879h-4.235v8.029h-5.451V3.9Z" transform="translate(-276.308 -1.027)"/>
    <path id="Path_18" data-name="Path 18" d="M424.221,1.3H429.5V7.107c0,2.034.859,2.663,2.516,2.663s2.516-.629,2.516-2.663V1.3h5.136V7.506a3.461,3.461,0,0,1-1.237,3.1c-1.3,1.111-3.564,1.593-6.5,1.593-2.914,0-5.178-.461-6.5-1.593a3.437,3.437,0,0,1-1.237-3.1V1.3Z" transform="translate(-335.268 -1.027)"/>
  </g>
  <g id="Group_211" data-name="Group 211" transform="translate(120.316)">
    <path id="Path_19" data-name="Path 19" d="M584.7,4.372c-.147-1.3-.818-1.887-2.306-1.887-2.117,0-2.83,1.488-2.83,3.27,0,1.761.713,3.27,2.83,3.27,1.656,0,2.453-.629,2.516-1.992h5.577a3.177,3.177,0,0,1-1.174,2.683c-1.447,1.153-4,1.635-6.771,1.635-6.5,0-8.637-2.18-8.637-5.577C573.9,3.261,575.284.2,582.537.2c3.25,0,5.514.5,6.646,1.384.818.629,1.069,1.279,1.09,2.83H584.7Z" transform="translate(-573.9 -0.158)"/>
    <path id="Path_20" data-name="Path 20" d="M676.34,9.329c-1.4,1.111-3.648,1.845-6.981,1.845-6.331,0-8.658-2.411-8.658-5.577a4.875,4.875,0,0,1,2.495-4.4C664.432.461,666.025,0,669.358,0c6.331,0,8.658,2.411,8.658,5.577A4.561,4.561,0,0,1,676.34,9.329Zm-6.981-6.918a2.861,2.861,0,0,0-3.1,3.166,3.1,3.1,0,1,0,6.206,0A2.861,2.861,0,0,0,669.358,2.411Z" transform="translate(-642.503 0)"/>
    <path id="Path_21" data-name="Path 21" d="M751,1.3h8.26l2.7,7.107h.042L764.627,1.3h8.3V11.908h-5.052V3.942h-.042l-3.543,7.967h-5.283l-3.333-7.967h-.063v7.967H751Z" transform="translate(-713.872 -1.027)"/>
    <path id="Path_22" data-name="Path 22" d="M864.6,1.3h9.245c3.124,0,5.3.922,5.3,3.69,0,2.579-2.1,3.5-4.822,3.5h-4.277v3.417H864.6Zm5.451,4.969h1.111c1.929,0,2.641-.356,2.641-1.4,0-.881-.545-1.342-2.1-1.342h-1.656Z" transform="translate(-803.656 -1.027)"/>
    <path id="Path_23" data-name="Path 23" d="M942.2,1.3h5.283V7.107c0,2.034.86,2.663,2.516,2.663s2.516-.629,2.516-2.663V1.3h5.157V7.506a3.461,3.461,0,0,1-1.237,3.1c-1.3,1.111-3.564,1.593-6.5,1.593-2.914,0-5.178-.461-6.5-1.593a3.437,3.437,0,0,1-1.237-3.1Z" transform="translate(-864.988 -1.027)"/>
  </g>
</svg>
