<?xml version="1.0" encoding="UTF-8"?>
<svg width="517px" height="496px" viewBox="0 0 517 496" version="1.1" xmlns="http://www.w3.org/2000/svg" xmlns:xlink="http://www.w3.org/1999/xlink">
    <!-- Generator: Sketch 48.2 (47327) - http://www.bohemiancoding.com/sketch -->
    <title>Full Logo</title>
    <desc>Created with Sketch.</desc>
    <defs>
        <polygon id="path-1" points="0.0516 44 61.5646 44 61.5646 0.7014 0.0516 0.7014"></polygon>
    </defs>
    <g id="Page-1" stroke="none" stroke-width="1" fill="none" fill-rule="evenodd">
        <g id="Full-Logo">
            <path d="M72.2374,351.6108 C72.3084,353.9488 72.8804,355.6438 74.2364,356.7538 C75.6624,357.8638 77.5904,358.4488 80.4434,358.4488 C84.9394,358.4488 89.7914,357.5718 89.7914,354.1818 C89.7914,353.4228 89.4354,352.7808 88.8654,352.2538 C85.9384,349.5658 61.3184,347.5798 54.3964,342.6128 C51.6144,340.6268 50.7574,337.6468 50.7574,335.2498 C50.7574,326.0178 61.1044,321.8698 81.7274,321.8698 C103.6354,321.8698 110.2724,326.8358 110.5584,335.5418 L89.2924,335.5418 C89.1504,333.2048 88.2224,331.7438 86.6524,330.8668 C85.1534,329.9908 83.0124,329.6988 80.3014,329.6988 C75.7344,329.6988 73.3084,331.1018 73.3084,333.2638 C73.3084,333.9068 73.5934,334.7238 74.2364,335.1918 C77.5904,337.8218 101.4244,339.6918 108.2754,344.7158 C110.2724,346.1778 112.3414,348.4558 112.3414,352.5468 C112.3414,360.9018 103.3504,366.2778 79.8734,366.2778 C51.8994,366.2778 50.5434,359.4418 50.1164,351.6108 L72.2374,351.6108 Z" id="Fill-1" fill="#000000" fill-rule="nonzero"></path>
            <path d="M160.575,348.924 L152.583,334.198 L144.234,348.924 L160.575,348.924 Z M140.023,322.979 L167.069,322.979 L193.33,365.168 L169.424,365.168 L165.642,358.157 L139.024,358.157 L135.028,365.168 L113.762,365.168 L140.023,322.979 Z" id="Fill-3" fill="#000000" fill-rule="nonzero"></path>
            <polygon id="Fill-5" fill="#000000" fill-rule="nonzero" points="197.8844 322.9793 229.6404 322.9793 246.9804 351.2603 247.1944 351.2603 247.1944 322.9793 266.0344 322.9793 266.0344 365.1683 235.2774 365.1683 216.8674 335.1333 216.7224 335.1333 216.7224 365.1683 197.8844 365.1683"></polygon>
            <path d="M315.41,338.6397 C314.838,333.4387 312.127,331.1017 306.276,331.1017 C297.854,331.1017 295.001,337.0617 295.001,344.0727 C295.001,351.0857 297.854,357.0457 306.276,357.0457 C312.84,357.0457 316.051,354.5337 316.265,349.0987 L338.388,349.0987 C338.245,352.8967 337.745,356.5787 333.75,359.7337 C327.969,364.2917 317.836,366.2777 306.775,366.2777 C280.942,366.2777 272.45,357.5717 272.45,344.0727 C272.45,334.0817 277.945,321.8697 306.775,321.8697 C319.69,321.8697 328.682,323.8557 333.178,327.3617 C336.389,329.8737 337.46,332.4457 337.531,338.6397 L315.41,338.6397 Z" id="Fill-7" fill="#000000" fill-rule="nonzero"></path>
            <polygon id="Fill-9" fill="#000000" fill-rule="nonzero" points="359.4988 333.2635 342.5858 333.2635 342.5858 322.9795 398.1048 322.9795 398.1048 333.2635 381.1928 333.2635 381.1928 365.1675 359.4988 365.1675"></polygon>
            <path d="M404.8038,322.9793 L425.7828,322.9793 L425.7828,346.1193 C425.7828,354.1823 429.2088,356.6953 435.7738,356.6953 C442.3398,356.6953 445.7648,354.1823 445.7648,346.1193 L445.7648,322.9793 L466.3168,322.9793 L466.3168,347.6373 C466.3168,354.2993 464.7458,357.1033 461.3918,359.9673 C456.1838,364.4083 447.1918,366.2783 435.5608,366.2783 C423.9268,366.2783 414.9368,364.4083 409.7268,359.9673 C406.3728,357.1033 404.8038,354.2993 404.8038,347.6373 L404.8038,322.9793 Z" id="Fill-11" fill="#000000" fill-rule="nonzero"></path>
            <path d="M116.828,468.3148 C116.256,463.1138 113.545,460.7768 107.694,460.7768 C99.272,460.7768 96.419,466.7368 96.419,473.7478 C96.419,480.7608 99.272,486.7208 107.694,486.7208 C114.258,486.7208 117.469,484.2088 117.683,478.7738 L139.806,478.7738 C139.663,482.5718 139.163,486.2538 135.168,489.4088 C129.387,493.9668 119.254,495.9528 108.193,495.9528 C82.36,495.9528 73.868,487.2468 73.868,473.7478 C73.868,463.7568 79.363,451.5448 108.193,451.5448 C121.108,451.5448 130.1,453.5308 134.596,457.0368 C137.807,459.5488 138.878,462.1208 138.949,468.3148 L116.828,468.3148 Z" id="Fill-13" fill="#000000" fill-rule="nonzero"></path>
            <g id="Group-17" transform="translate(146.000000, 450.953000)" fill="#000000" fill-rule="nonzero">
                <path d="M34.6889,10.1741 C27.5529,10.1741 22.3429,14.1471 22.3429,22.7951 C22.3429,31.4441 27.5529,35.4171 34.6889,35.4171 C41.8249,35.4171 47.0349,31.4441 47.0349,22.7951 C47.0349,14.1471 41.8249,10.1741 34.6889,10.1741 M62.4489,37.6961 C56.8829,42.0781 47.9629,45.0001 34.6889,45.0001 C9.4989,45.0001 0.2219,35.4171 0.2219,22.7951 C0.2219,14.6151 4.2179,8.7131 10.1419,5.2661 C15.0649,2.4031 21.4169,0.5911 34.6889,0.5911 C59.8789,0.5911 69.1559,10.1741 69.1559,22.7951 C69.1559,29.2811 66.7299,34.3661 62.4489,37.6961" id="Fill-15"></path>
            </g>
            <polygon id="Fill-18" fill="#000000" fill-rule="nonzero" points="221.5718 452.6544 254.4698 452.6544 265.2438 480.9354 265.3868 480.9354 275.8068 452.6544 308.8448 452.6544 308.8448 494.8434 288.7228 494.8434 288.7228 463.1134 288.5798 463.1134 274.4498 494.8434 253.4698 494.8434 240.1968 463.1134 239.9828 463.1134 239.9828 494.8434 221.5718 494.8434"></polygon>
            <path d="M338.0289,472.4046 L342.4519,472.4046 C350.1589,472.4046 352.9429,471.0026 352.9429,466.8536 C352.9429,463.3466 350.8019,461.5356 344.5929,461.5356 L338.0289,461.5356 L338.0289,472.4046 Z M316.3349,452.6546 L353.0859,452.6546 C365.5029,452.6546 374.2079,456.3356 374.2079,467.3216 C374.2079,477.6056 365.8589,481.2856 355.0109,481.2856 L338.0289,481.2856 L338.0289,494.8426 L316.3349,494.8426 L316.3349,452.6546 Z" id="Fill-20" fill="#000000" fill-rule="nonzero"></path>
            <g id="Group-24" transform="translate(381.000000, 451.953000)">
                <g id="Fill-22-Clipped">
                    <mask id="mask-2" fill="white">
                        <use xlink:href="#path-1"></use>
                    </mask>
                    <g id="path-1"></g>
                    <path d="M0.0516,0.7014 L21.0306,0.7014 L21.0306,23.8414 C21.0306,31.9044 24.4566,34.4174 31.0216,34.4174 C37.5876,34.4174 41.0126,31.9044 41.0126,23.8414 L41.0126,0.7014 L61.5646,0.7014 L61.5646,25.3594 C61.5646,32.0214 59.9936,34.8254 56.6396,37.6894 C51.4316,42.1304 42.4396,44.0004 30.8086,44.0004 C19.1746,44.0004 10.1846,42.1304 4.9746,37.6894 C1.6206,34.8254 0.0516,32.0214 0.0516,25.3594 L0.0516,0.7014 Z" id="Fill-22" fill="#000000" fill-rule="nonzero" mask="url(#mask-2)"></path>
                </g>
            </g>
            <path d="M11,403.6888 L505.433,403.6888 L505.433,82.3318 L258.216,11.4438 L11,82.3318 L11,403.6888 Z M516.433,414.6888 L0,414.6888 L0,74.0428 L258.216,0.0008 L516.433,74.0428 L516.433,414.6888 Z" id="Fill-25" fill="#000000" fill-rule="nonzero"></path>
        </g>
    </g>
</svg>
