<?xml version="1.0" encoding="UTF-8"?>
<svg width="218px" height="89px" viewBox="0 0 218 89" version="1.1" xmlns="http://www.w3.org/2000/svg" xmlns:xlink="http://www.w3.org/1999/xlink">
    <!-- Generator: Sketch 55.2 (78181) - https://sketchapp.com -->
    <title>Group</title>
    <desc>Created with Sketch.</desc>
    <g id="Page-20" stroke="none" stroke-width="1" fill="none" fill-rule="evenodd">
        <g id="SANCTU_COMPU_BRAND" transform="translate(-611.000000, -467.000000)" fill="#141414">
            <g id="Group" transform="translate(611.237300, 467.000000)">
                <polygon id="Fill-1008" points="110.6407 84.103 118.3307 84.103 118.3307 80.633 110.6407 80.633"></polygon>
                <path d="M5.7777,84.4421 C5.7957,85.0421 5.9427,85.4761 6.2907,85.7611 C6.6557,86.0461 7.1507,86.1961 7.8827,86.1961 C9.0357,86.1961 10.2797,85.9711 10.2797,85.1021 C10.2797,84.9071 10.1887,84.7421 10.0427,84.6071 C9.2917,83.9181 2.9777,83.4081 1.2017,82.1341 C0.4887,81.6251 0.2687,80.8611 0.2687,80.2461 C0.2687,77.8781 2.9227,76.8141 8.2117,76.8141 C13.8307,76.8141 15.5327,78.0881 15.6057,80.3211 L10.1517,80.3211 C10.1157,79.7221 9.8777,79.3471 9.4747,79.1221 C9.0907,78.8971 8.5407,78.8221 7.8457,78.8221 C6.6747,78.8221 6.0527,79.1821 6.0527,79.7371 C6.0527,79.9011 6.1257,80.1111 6.2907,80.2311 C7.1507,80.9061 13.2637,81.3851 15.0207,82.6741 C15.5327,83.0491 16.0637,83.6331 16.0637,84.6821 C16.0637,86.8251 13.7567,88.2041 7.7357,88.2041 C0.5617,88.2041 0.2137,86.4501 0.1047,84.4421 L5.7777,84.4421 Z" id="Fill-1009"></path>
                <path d="M22.9487,77.099 L29.8857,77.099 L36.6207,87.919 L30.4887,87.919 L29.5197,86.121 L22.6927,86.121 L21.6677,87.919 L16.2137,87.919 L22.9487,77.099 Z M28.2197,83.753 L26.1697,79.977 L24.0287,83.753 L28.2197,83.753 Z" id="Fill-1011"></path>
                <polygon id="Fill-1012" points="37.7885 77.099 45.9325 77.099 50.3805 84.352 50.4345 84.352 50.4345 77.099 55.2665 77.099 55.2665 87.919 47.3785 87.919 42.6565 80.216 42.6195 80.216 42.6195 87.919 37.7885 87.919"></polygon>
                <path d="M67.9302,81.1155 C67.7832,79.7815 67.0882,79.1825 65.5872,79.1825 C63.4272,79.1825 62.6962,80.7105 62.6962,82.5085 C62.6962,84.3075 63.4272,85.8355 65.5872,85.8355 C67.2712,85.8355 68.0942,85.1915 68.1492,83.7975 L73.8232,83.7975 C73.7872,84.7725 73.6582,85.7165 72.6342,86.5255 C71.1512,87.6945 68.5522,88.2035 65.7152,88.2035 C59.0902,88.2035 56.9122,85.9715 56.9122,82.5085 C56.9122,79.9465 58.3212,76.8145 65.7152,76.8145 C69.0282,76.8145 71.3342,77.3235 72.4872,78.2235 C73.3112,78.8675 73.5852,79.5265 73.6032,81.1155 L67.9302,81.1155 Z" id="Fill-1013"></path>
                <polygon id="Fill-1015" points="79.2377 79.7367 74.8997 79.7367 74.8997 77.0987 89.1387 77.0987 89.1387 79.7367 84.8017 79.7367 84.8017 87.9187 79.2377 87.9187"></polygon>
                <g id="Group-1022" transform="translate(90.762700, 76.000000)">
                    <path d="M0.0944,1.099 L5.4754,1.099 L5.4754,7.034 C5.4754,9.102 6.3534,9.746 8.0374,9.746 C9.7214,9.746 10.5994,9.102 10.5994,7.034 L10.5994,1.099 L15.8704,1.099 L15.8704,7.423 C15.8704,9.132 15.4674,9.851 14.6074,10.585 C13.2714,11.724 10.9654,12.204 7.9824,12.204 C4.9994,12.204 2.6934,11.724 1.3574,10.585 C0.4974,9.851 0.0944,9.132 0.0944,7.423 L0.0944,1.099 Z" id="Fill-1016"></path>
                    <path d="M43.1222,5.1155 C42.9752,3.7815 42.2802,3.1825 40.7792,3.1825 C38.6202,3.1825 37.8882,4.7105 37.8882,6.5095 C37.8882,8.3075 38.6202,9.8355 40.7792,9.8355 C42.4632,9.8355 43.2872,9.1915 43.3412,7.7975 L49.0152,7.7975 C48.9792,8.7725 48.8502,9.7165 47.8262,10.5255 C46.3432,11.6945 43.7442,12.2035 40.9072,12.2035 C34.2822,12.2035 32.1042,9.9715 32.1042,6.5095 C32.1042,3.9465 33.5132,0.8145 40.9072,0.8145 C44.2202,0.8145 46.5262,1.3235 47.6792,2.2235 C48.5032,2.8675 48.7772,3.5265 48.7952,5.1155 L43.1222,5.1155 Z" id="Fill-1018"></path>
                    <path d="M66.6203,10.3306 C65.1923,11.4546 62.9053,12.2036 59.5003,12.2036 C53.0403,12.2036 50.6613,9.7466 50.6613,6.5086 C50.6613,4.4116 51.6853,2.8976 53.2053,2.0136 C54.4673,1.2786 56.0963,0.8146 59.5003,0.8146 C65.9613,0.8146 68.3403,3.2726 68.3403,6.5086 C68.3403,8.1726 67.7183,9.4766 66.6203,10.3306 M59.5003,3.2726 C57.6703,3.2726 56.3343,4.2916 56.3343,6.5086 C56.3343,8.7276 57.6703,9.7466 59.5003,9.7466 C61.3303,9.7466 62.6673,8.7276 62.6673,6.5086 C62.6673,4.2916 61.3303,3.2726 59.5003,3.2726" id="Fill-1020"></path>
                </g>
                <polygon id="Fill-1023" points="160.7486 77.099 169.1856 77.099 171.9496 84.352 171.9856 84.352 174.6586 77.099 183.1316 77.099 183.1316 87.919 177.9706 87.919 177.9706 79.782 177.9346 79.782 174.3096 87.919 168.9296 87.919 165.5256 79.782 165.4706 79.782 165.4706 87.919 160.7486 87.919"></polygon>
                <g id="Group-1028" transform="translate(184.762700, 77.000000)">
                    <path d="M0.2899,0.099 L9.7149,0.099 C12.8999,0.099 15.1329,1.043 15.1329,3.861 C15.1329,6.498 12.9909,7.442 10.2089,7.442 L5.8539,7.442 L5.8539,10.919 L0.2899,10.919 L0.2899,0.099 Z M5.8539,5.164 L6.9879,5.164 C8.9649,5.164 9.6789,4.805 9.6789,3.741 C9.6789,2.841 9.1299,2.377 7.5369,2.377 L5.8539,2.377 L5.8539,5.164 Z" id="Fill-1024"></path>
                    <path d="M16.8877,0.099 L22.2687,0.099 L22.2687,6.034 C22.2687,8.102 23.1467,8.746 24.8307,8.746 C26.5147,8.746 27.3927,8.102 27.3927,6.034 L27.3927,0.099 L32.6637,0.099 L32.6637,6.423 C32.6637,8.132 32.2607,8.851 31.4007,9.585 C30.0647,10.724 27.7587,11.204 24.7757,11.204 C21.7927,11.204 19.4867,10.724 18.1507,9.585 C17.2897,8.851 16.8877,8.132 16.8877,6.423 L16.8877,0.099 Z" id="Fill-1026"></path>
                </g>
                <path d="M110.5427,71.536 L118.4287,71.536 L118.4287,67.87 L110.5427,67.87 L110.5427,71.536 Z M110.7387,71.339 L118.2317,71.339 L118.2317,68.066 L110.7387,68.066 L110.7387,71.339 Z" id="Fill-1029"></path>
                <path d="M7.736,75.636 C0.756,75.636 0.129,74.039 0.006,71.782 L0,71.678 L5.873,71.678 L5.876,71.773 C5.894,72.372 6.046,72.768 6.353,73.019 C6.714,73.3 7.2,73.432 7.882,73.432 C8.741,73.432 10.181,73.302 10.181,72.436 C10.181,72.282 10.112,72.14 9.975,72.013 C9.671,71.734 8.245,71.458 6.736,71.166 C4.595,70.752 2.168,70.283 1.145,69.548 C0.526,69.106 0.17,68.389 0.17,67.58 C0.17,65.172 2.726,64.05 8.212,64.05 C14.71,64.05 15.645,65.871 15.704,67.652 L15.707,67.753 L10.059,67.753 L10.054,67.661 C10.021,67.118 9.821,66.762 9.427,66.542 C9.091,66.346 8.589,66.255 7.846,66.255 C6.784,66.255 6.151,66.559 6.151,67.071 C6.151,67.206 6.212,67.386 6.348,67.486 C6.695,67.758 8.051,68.019 9.487,68.295 C11.624,68.706 14.046,69.171 15.079,69.929 C15.807,70.462 16.162,71.145 16.162,72.016 C16.162,74.418 13.327,75.636 7.736,75.636 L7.736,75.636 Z M0.208,71.875 C0.307,73.645 0.543,75.439 7.736,75.439 C13.196,75.439 15.965,74.288 15.965,72.016 C15.965,70.945 15.393,70.402 14.962,70.088 C13.965,69.356 11.461,68.875 9.45,68.488 C7.864,68.183 6.612,67.942 6.229,67.642 C6.027,67.495 5.954,67.242 5.954,67.071 C5.954,66.427 6.643,66.058 7.846,66.058 C8.636,66.058 9.154,66.155 9.524,66.371 C9.952,66.61 10.188,66.998 10.243,67.557 L15.503,67.557 C15.368,65.208 13.242,64.247 8.212,64.247 C2.86,64.247 0.367,65.306 0.367,67.58 C0.367,68.017 0.483,68.834 1.259,69.389 C2.248,70.098 4.757,70.583 6.773,70.973 C8.443,71.296 9.763,71.551 10.109,71.868 C10.288,72.034 10.378,72.225 10.378,72.436 C10.378,73.205 9.492,73.628 7.882,73.628 C7.155,73.628 6.629,73.483 6.23,73.173 C5.891,72.896 5.717,72.482 5.683,71.875 L0.208,71.875 Z" id="Fill-1030"></path>
                <path d="M36.7974,75.3514 L30.4304,75.3514 L29.4604,73.5534 L22.7494,73.5534 L21.7254,75.3514 L16.0364,75.3514 L22.8944,64.3344 L29.9394,64.3344 L29.9684,64.3814 L36.7974,75.3514 Z M30.5474,75.1544 L36.4434,75.1544 L29.8304,64.5314 L23.0034,64.5314 L16.3904,75.1544 L21.6104,75.1544 L22.6354,73.3564 L29.5784,73.3564 L30.5474,75.1544 Z M28.3844,71.1854 L23.8604,71.1854 L26.1714,67.1074 L28.3844,71.1854 Z M24.1974,70.9884 L28.0544,70.9884 L26.1684,67.5134 L24.1974,70.9884 Z" id="Fill-1032"></path>
                <path d="M55.3651,75.3514 L47.3241,75.3514 L42.7181,67.8384 L42.7181,75.3514 L37.6901,75.3514 L37.6901,64.3344 L45.9881,64.3344 L46.0161,64.3814 L50.3371,71.4274 L50.3371,64.3344 L55.3651,64.3344 L55.3651,75.3514 Z M47.4341,75.1544 L55.1681,75.1544 L55.1681,64.5314 L50.5331,64.5314 L50.5331,71.7844 L50.3251,71.7844 L50.2961,71.7374 L45.8781,64.5314 L37.8871,64.5314 L37.8871,75.1544 L42.5211,75.1544 L42.5211,67.4514 L42.7121,67.4514 L47.4341,75.1544 Z" id="Fill-1033"></path>
                <path d="M65.7155,75.636 C59.6425,75.636 56.8145,73.795 56.8145,69.843 C56.8145,65.055 61.6545,64.05 65.7155,64.05 C68.9865,64.05 71.3485,64.544 72.5475,65.479 C73.4135,66.157 73.6835,66.851 73.7015,68.448 L73.7035,68.548 L67.8425,68.548 L67.8325,68.46 C67.6905,67.167 67.0185,66.614 65.5875,66.614 C63.2785,66.614 62.7945,68.37 62.7945,69.843 C62.7945,71.316 63.2785,73.072 65.5875,73.072 C67.2165,73.072 67.9995,72.454 68.0515,71.128 L68.0555,71.034 L73.9255,71.034 L73.9215,71.136 C73.8855,72.091 73.7615,73.094 72.6945,73.937 C71.3045,75.032 68.8265,75.636 65.7155,75.636 M65.7155,64.247 C59.9395,64.247 57.0105,66.129 57.0105,69.843 C57.0105,72.245 57.9135,75.439 65.7155,75.439 C68.7825,75.439 71.2175,74.851 72.5725,73.782 C73.5385,73.02 73.6805,72.141 73.7215,71.23 L68.2425,71.23 C68.1525,72.601 67.2825,73.268 65.5875,73.268 C63.6595,73.268 62.5975,72.052 62.5975,69.843 C62.5975,67.634 63.6595,66.418 65.5875,66.418 C67.0895,66.418 67.8425,67.015 68.0175,68.351 L73.5035,68.351 C73.4765,66.896 73.2175,66.253 72.4265,65.635 C71.2625,64.727 68.9425,64.247 65.7155,64.247" id="Fill-1034"></path>
                <path d="M84.8998,75.3514 L79.1398,75.3514 L79.1398,67.1684 L74.8018,67.1684 L74.8018,64.3344 L89.2378,64.3344 L89.2378,67.1684 L84.8998,67.1684 L84.8998,75.3514 Z M79.3358,75.1544 L84.7028,75.1544 L84.7028,66.9724 L89.0408,66.9724 L89.0408,64.5314 L74.9988,64.5314 L74.9988,66.9724 L79.3358,66.9724 L79.3358,75.1544 Z" id="Fill-1036"></path>
                <g id="Group-1043" transform="translate(89.762700, 64.000000)">
                    <path d="M8.9824,11.636 C5.7774,11.636 3.5894,11.099 2.2934,9.994 C1.4524,9.276 0.9964,8.547 0.9964,6.757 L0.9964,0.335 L6.5734,0.335 L6.5734,6.368 C6.5734,8.249 7.2644,8.982 9.0374,8.982 C10.8104,8.982 11.5014,8.249 11.5014,6.368 L11.5014,0.335 L16.9694,0.335 L16.9694,6.757 C16.9694,8.547 16.5134,9.276 15.6714,9.994 C14.3754,11.099 12.1874,11.636 8.9824,11.636 L8.9824,11.636 Z M1.1924,0.531 L1.1924,6.757 C1.1924,8.481 1.6064,9.149 2.4204,9.844 C3.6624,10.903 5.8704,11.439 8.9824,11.439 C12.0944,11.439 14.3024,10.903 15.5434,9.844 C16.3584,9.149 16.7724,8.48 16.7724,6.757 L16.7724,0.531 L11.6974,0.531 L11.6974,6.368 C11.6974,8.338 10.9024,9.178 9.0374,9.178 C7.1724,9.178 6.3764,8.338 6.3764,6.368 L6.3764,0.531 L1.1924,0.531 Z" id="Fill-1037"></path>
                    <path d="M41.9076,11.636 C35.8346,11.636 33.0066,9.795 33.0066,5.843 C33.0066,1.055 37.8466,0.05 41.9076,0.05 C45.1786,0.05 47.5406,0.544 48.7396,1.479 C49.6056,2.157 49.8756,2.851 49.8936,4.448 L49.8946,4.548 L44.0336,4.548 L44.0246,4.46 C43.8826,3.167 43.2106,2.614 41.7796,2.614 C39.4706,2.614 38.9856,4.37 38.9856,5.843 C38.9856,7.316 39.4706,9.072 41.7796,9.072 C43.4086,9.072 44.1916,8.454 44.2436,7.128 L44.2476,7.034 L50.1176,7.034 L50.1136,7.136 C50.0776,8.091 49.9536,9.094 48.8866,9.937 C47.4966,11.032 45.0186,11.636 41.9076,11.636 M41.9076,0.247 C36.1316,0.247 33.2026,2.129 33.2026,5.843 C33.2026,8.245 34.1056,11.439 41.9076,11.439 C44.9746,11.439 47.4096,10.851 48.7646,9.782 C49.7306,9.02 49.8726,8.141 49.9126,7.23 L44.4346,7.23 C44.3446,8.601 43.4746,9.268 41.7796,9.268 C39.8516,9.268 38.7896,8.052 38.7896,5.843 C38.7896,3.634 39.8516,2.418 41.7796,2.418 C43.2816,2.418 44.0346,3.015 44.2096,4.351 L49.6956,4.351 C49.6686,2.896 49.4096,2.253 48.6186,1.635 C47.4546,0.727 45.1346,0.247 41.9076,0.247" id="Fill-1039"></path>
                    <path d="M60.5007,11.636 C53.1137,11.636 51.5627,8.486 51.5627,5.843 C51.5627,3.862 52.4837,2.235 54.1557,1.262 C55.2377,0.633 56.7567,0.05 60.5007,0.05 C67.8877,0.05 69.4387,3.2 69.4387,5.843 C69.4387,7.499 68.8307,8.847 67.6807,9.741 C66.0847,10.999 63.6687,11.636 60.5007,11.636 M60.5007,0.247 C56.8027,0.247 55.3137,0.817 54.2547,1.432 C52.6457,2.368 51.7587,3.934 51.7587,5.843 C51.7587,9.504 54.7817,11.439 60.5007,11.439 C63.6237,11.439 65.9987,10.816 67.5597,9.587 L67.5597,9.587 C68.6607,8.731 69.2417,7.436 69.2417,5.843 C69.2417,2.182 66.2197,0.247 60.5007,0.247 M60.5007,9.178 C58.4567,9.178 57.2357,7.932 57.2357,5.843 C57.2357,3.754 58.4567,2.508 60.5007,2.508 C62.5447,2.508 63.7657,3.754 63.7657,5.843 C63.7657,7.932 62.5447,9.178 60.5007,9.178 M60.5007,2.704 C58.5507,2.704 57.4327,3.848 57.4327,5.843 C57.4327,7.838 58.5507,8.982 60.5007,8.982 C62.4507,8.982 63.5687,7.838 63.5687,5.843 C63.5687,3.848 62.4507,2.704 60.5007,2.704" id="Fill-1041"></path>
                </g>
                <path d="M183.2297,75.3514 L177.8727,75.3514 L177.8727,67.4954 L174.3737,75.3514 L168.8637,75.3514 L165.5687,67.4734 L165.5687,75.3514 L160.6497,75.3514 L160.6497,64.3344 L169.2537,64.3344 L169.2777,64.3984 L171.9667,71.4544 L174.5897,64.3344 L183.2297,64.3344 L183.2297,75.3514 Z M178.0687,75.1544 L183.0327,75.1544 L183.0327,64.5314 L174.7267,64.5314 L172.0537,71.7844 L171.8817,71.7844 L171.8577,71.7214 L169.1177,64.5314 L160.8467,64.5314 L160.8467,75.1544 L165.3717,75.1544 L165.3717,67.0174 L165.5907,67.0174 L168.9947,75.1544 L174.2467,75.1544 L177.8707,67.0174 L178.0687,67.0174 L178.0687,75.1544 Z" id="Fill-1044"></path>
                <g id="Group-1049" transform="translate(184.762700, 64.000000)">
                    <path d="M5.952,11.3514 L0.192,11.3514 L0.192,0.3344 L9.715,0.3344 C13.427,0.3344 15.231,1.5974 15.231,4.1944 C15.231,6.6024 13.494,7.8744 10.209,7.8744 L5.952,7.8744 L5.952,11.3514 Z M0.388,11.1544 L5.755,11.1544 L5.755,7.6784 L10.209,7.6784 C12.41,7.6784 15.034,7.0734 15.034,4.1944 C15.034,1.7294 13.294,0.5314 9.715,0.5314 L0.388,0.5314 L0.388,11.1544 Z M6.988,5.5964 L5.755,5.5964 L5.755,2.6124 L7.537,2.6124 C9.086,2.6124 9.777,3.0634 9.777,4.0744 C9.777,5.3474 8.754,5.5964 6.988,5.5964 L6.988,5.5964 Z M5.952,5.4004 L6.988,5.4004 C8.926,5.4004 9.58,5.0654 9.58,4.0744 C9.58,3.4174 9.333,2.8094 7.537,2.8094 L5.952,2.8094 L5.952,5.4004 Z" id="Fill-1045"></path>
                    <path d="M24.7759,11.636 C21.5709,11.636 19.3829,11.099 18.0869,9.994 C17.2449,9.276 16.7899,8.548 16.7899,6.757 L16.7899,0.335 L22.3669,0.335 L22.3669,6.368 C22.3669,8.249 23.0569,8.982 24.8309,8.982 C26.6039,8.982 27.2949,8.249 27.2949,6.368 L27.2949,0.335 L32.7619,0.335 L32.7619,6.757 C32.7619,8.547 32.3059,9.276 31.4649,9.994 C30.1689,11.099 27.9809,11.636 24.7759,11.636 L24.7759,11.636 Z M16.9859,0.531 L16.9859,6.757 C16.9859,8.481 17.3999,9.149 18.2139,9.844 C19.4559,10.903 21.6639,11.439 24.7759,11.439 C27.8879,11.439 30.0959,10.903 31.3369,9.844 C32.1519,9.149 32.5659,8.48 32.5659,6.757 L32.5659,0.531 L27.4909,0.531 L27.4909,6.368 C27.4909,8.338 26.6959,9.178 24.8309,9.178 C22.9659,9.178 22.1699,8.338 22.1699,6.368 L22.1699,0.531 L16.9859,0.531 Z" id="Fill-1047"></path>
                </g>
                <path d="M110.5427,58.87 L118.4287,58.87 L118.4287,55.204 L110.5427,55.204 L110.5427,58.87 Z M110.7387,58.673 L118.2317,58.673 L118.2317,55.4 L110.7387,55.4 L110.7387,58.673 Z" id="Fill-1050"></path>
                <path d="M7.736,62.97 C0.756,62.97 0.129,61.372 0.006,59.115 L0,59.012 L5.873,59.012 L5.876,59.107 C5.894,59.706 6.046,60.102 6.352,60.353 C6.713,60.634 7.2,60.765 7.882,60.765 C8.741,60.765 10.181,60.636 10.181,59.77 C10.181,59.616 10.112,59.474 9.975,59.347 C9.671,59.068 8.245,58.792 6.736,58.5 C4.595,58.086 2.168,57.617 1.145,56.882 C0.265,56.255 0.17,55.297 0.17,54.914 C0.17,52.505 2.726,51.384 8.212,51.384 C14.71,51.384 15.645,53.205 15.704,54.986 L15.707,55.087 L10.059,55.087 L10.054,54.995 C10.021,54.452 9.821,54.096 9.427,53.876 C9.091,53.68 8.589,53.589 7.846,53.589 C6.784,53.589 6.151,53.894 6.151,54.405 C6.151,54.54 6.212,54.72 6.348,54.82 C6.695,55.092 8.051,55.353 9.487,55.629 C11.624,56.04 14.046,56.505 15.079,57.263 C15.807,57.796 16.162,58.479 16.162,59.35 C16.162,61.752 13.327,62.97 7.736,62.97 L7.736,62.97 Z M0.208,59.208 C0.307,60.979 0.543,62.773 7.736,62.773 C13.196,62.773 15.965,61.622 15.965,59.35 C15.965,58.279 15.393,57.736 14.962,57.421 C13.965,56.69 11.462,56.209 9.45,55.822 C7.864,55.517 6.612,55.276 6.229,54.976 C6.027,54.829 5.954,54.576 5.954,54.405 C5.954,53.761 6.643,53.392 7.846,53.392 C8.636,53.392 9.154,53.488 9.524,53.705 C9.952,53.944 10.188,54.332 10.243,54.891 L15.503,54.891 C15.368,52.542 13.242,51.58 8.212,51.58 C2.86,51.58 0.367,52.64 0.367,54.914 C0.367,55.351 0.483,56.168 1.259,56.722 C2.248,57.432 4.757,57.917 6.773,58.307 C8.444,58.63 9.763,58.885 10.109,59.202 C10.288,59.368 10.378,59.559 10.378,59.77 C10.378,60.538 9.492,60.962 7.882,60.962 C7.154,60.962 6.629,60.817 6.23,60.506 C5.891,60.23 5.717,59.816 5.683,59.208 L0.208,59.208 Z" id="Fill-1051"></path>
                <path d="M36.7974,62.6855 L30.4304,62.6855 L29.4604,60.8875 L22.7494,60.8875 L21.7254,62.6855 L16.0364,62.6855 L22.8944,51.6685 L29.9394,51.6685 L29.9684,51.7155 L36.7974,62.6855 Z M30.5474,62.4885 L36.4434,62.4885 L29.8304,51.8655 L23.0034,51.8655 L16.3904,62.4885 L21.6104,62.4885 L22.6354,60.6905 L29.5784,60.6905 L30.5474,62.4885 Z M28.3844,58.5195 L23.8604,58.5195 L26.1714,54.4415 L28.3844,58.5195 Z M24.1974,58.3225 L28.0544,58.3225 L26.1684,54.8465 L24.1974,58.3225 Z" id="Fill-1053"></path>
                <path d="M55.3651,62.6855 L47.3241,62.6855 L42.7181,55.1725 L42.7181,62.6855 L37.6901,62.6855 L37.6901,51.6685 L45.9881,51.6685 L46.0161,51.7155 L50.3371,58.7615 L50.3371,51.6685 L55.3651,51.6685 L55.3651,62.6855 Z M47.4341,62.4885 L55.1681,62.4885 L55.1681,51.8655 L50.5331,51.8655 L50.5331,59.1185 L50.3251,59.1185 L50.2961,59.0715 L45.8781,51.8655 L37.8871,51.8655 L37.8871,62.4885 L42.5211,62.4885 L42.5211,54.7855 L42.7121,54.7855 L47.4341,62.4885 Z" id="Fill-1054"></path>
                <path d="M65.7155,62.97 C59.6425,62.97 56.8145,61.129 56.8145,57.177 C56.8145,52.389 61.6545,51.384 65.7155,51.384 C68.9855,51.384 71.3485,51.878 72.5475,52.813 C73.4135,53.491 73.6835,54.185 73.7015,55.782 L73.7035,55.882 L67.8425,55.882 L67.8325,55.794 C67.6905,54.501 67.0185,53.948 65.5875,53.948 C63.2785,53.948 62.7945,55.704 62.7945,57.177 C62.7945,58.65 63.2785,60.405 65.5875,60.405 C67.2165,60.405 67.9995,59.788 68.0515,58.462 L68.0555,58.368 L73.9255,58.368 L73.9215,58.47 C73.8855,59.425 73.7615,60.428 72.6945,61.271 C71.3045,62.366 68.8265,62.97 65.7155,62.97 M65.7155,51.58 C59.9395,51.58 57.0105,53.464 57.0105,57.177 C57.0105,59.579 57.9135,62.773 65.7155,62.773 C68.7825,62.773 71.2175,62.185 72.5725,61.116 C73.5385,60.353 73.6805,59.475 73.7215,58.564 L68.2425,58.564 C68.1525,59.935 67.2825,60.602 65.5875,60.602 C63.6595,60.602 62.5975,59.386 62.5975,57.177 C62.5975,54.968 63.6595,53.752 65.5875,53.752 C67.0895,53.752 67.8425,54.349 68.0175,55.685 L73.5035,55.685 C73.4765,54.23 73.2185,53.588 72.4265,52.969 C71.2625,52.06 68.9415,51.58 65.7155,51.58" id="Fill-1055"></path>
                <path d="M84.8998,62.6855 L79.1398,62.6855 L79.1398,54.5025 L74.8018,54.5025 L74.8018,51.6685 L89.2378,51.6685 L89.2378,54.5025 L84.8998,54.5025 L84.8998,62.6855 Z M79.3358,62.4885 L84.7028,62.4885 L84.7028,54.3065 L89.0408,54.3065 L89.0408,51.8655 L74.9988,51.8655 L74.9988,54.3065 L79.3358,54.3065 L79.3358,62.4885 Z" id="Fill-1057"></path>
                <g id="Group-1064" transform="translate(89.762700, 51.000000)">
                    <path d="M8.9824,11.97 C5.7774,11.97 3.5894,11.433 2.2934,10.328 C1.4524,9.61 0.9964,8.881 0.9964,7.091 L0.9964,0.669 L6.5734,0.669 L6.5734,6.701 C6.5734,8.583 7.2644,9.316 9.0374,9.316 C10.8104,9.316 11.5014,8.583 11.5014,6.701 L11.5014,0.669 L16.9694,0.669 L16.9694,7.091 C16.9694,8.881 16.5134,9.609 15.6714,10.328 C14.3754,11.433 12.1874,11.97 8.9824,11.97 L8.9824,11.97 Z M1.1924,0.865 L1.1924,7.091 C1.1924,8.814 1.6064,9.483 2.4214,10.178 C3.6624,11.237 5.8704,11.773 8.9824,11.773 C12.0944,11.773 14.3024,11.237 15.5434,10.178 C16.3584,9.483 16.7724,8.814 16.7724,7.091 L16.7724,0.865 L11.6974,0.865 L11.6974,6.701 C11.6974,8.672 10.9024,9.512 9.0374,9.512 C7.1724,9.512 6.3764,8.672 6.3764,6.701 L6.3764,0.865 L1.1924,0.865 Z" id="Fill-1058"></path>
                    <path d="M41.9076,11.97 C35.8346,11.97 33.0066,10.129 33.0066,6.177 C33.0066,1.389 37.8466,0.384 41.9076,0.384 C45.1786,0.384 47.5406,0.878 48.7396,1.813 C49.6056,2.491 49.8756,3.185 49.8936,4.782 L49.8946,4.882 L44.0336,4.882 L44.0246,4.794 C43.8826,3.501 43.2106,2.948 41.7796,2.948 C39.4706,2.948 38.9856,4.704 38.9856,6.177 C38.9856,7.65 39.4706,9.405 41.7796,9.405 C43.4086,9.405 44.1916,8.788 44.2436,7.462 L44.2476,7.368 L50.1176,7.368 L50.1136,7.47 C50.0776,8.425 49.9536,9.428 48.8866,10.271 C47.4966,11.366 45.0186,11.97 41.9076,11.97 M41.9076,0.58 C36.1316,0.58 33.2026,2.464 33.2026,6.177 C33.2026,8.579 34.1056,11.773 41.9076,11.773 C44.9746,11.773 47.4096,11.185 48.7646,10.116 C49.7306,9.353 49.8726,8.475 49.9126,7.564 L44.4346,7.564 C44.3446,8.935 43.4746,9.602 41.7796,9.602 C39.8516,9.602 38.7896,8.386 38.7896,6.177 C38.7896,3.968 39.8516,2.752 41.7796,2.752 C43.2816,2.752 44.0346,3.349 44.2096,4.685 L49.6956,4.685 C49.6686,3.23 49.4096,2.588 48.6186,1.969 C47.4546,1.06 45.1336,0.58 41.9076,0.58" id="Fill-1060"></path>
                    <path d="M60.5007,11.97 C53.1137,11.97 51.5627,8.82 51.5627,6.177 C51.5627,4.196 52.4837,2.569 54.1557,1.596 C55.2377,0.967 56.7557,0.384 60.5007,0.384 C67.8877,0.384 69.4387,3.534 69.4387,6.177 C69.4387,7.833 68.8307,9.181 67.6807,10.075 C66.0847,11.333 63.6687,11.97 60.5007,11.97 M60.5007,0.58 C56.8027,0.58 55.3127,1.15 54.2547,1.766 C52.6457,2.702 51.7587,4.269 51.7587,6.177 C51.7587,9.838 54.7817,11.773 60.5007,11.773 C63.6237,11.773 65.9987,11.15 67.5597,9.921 L67.5597,9.921 C68.6607,9.065 69.2417,7.77 69.2417,6.177 C69.2417,2.516 66.2197,0.58 60.5007,0.58 M60.5007,9.512 C58.4567,9.512 57.2357,8.265 57.2357,6.177 C57.2357,4.089 58.4567,2.842 60.5007,2.842 C62.5447,2.842 63.7657,4.089 63.7657,6.177 C63.7657,8.265 62.5447,9.512 60.5007,9.512 M60.5007,3.038 C58.5507,3.038 57.4327,4.182 57.4327,6.177 C57.4327,8.172 58.5507,9.316 60.5007,9.316 C62.4507,9.316 63.5687,8.172 63.5687,6.177 C63.5687,4.182 62.4507,3.038 60.5007,3.038" id="Fill-1062"></path>
                </g>
                <path d="M183.2297,62.6855 L177.8727,62.6855 L177.8727,54.8295 L174.3737,62.6855 L168.8637,62.6855 L165.5687,54.8075 L165.5687,62.6855 L160.6497,62.6855 L160.6497,51.6685 L169.2537,51.6685 L169.2777,51.7325 L171.9667,58.7885 L174.5897,51.6685 L183.2297,51.6685 L183.2297,62.6855 Z M178.0687,62.4885 L183.0327,62.4885 L183.0327,51.8655 L174.7267,51.8655 L172.0537,59.1185 L171.8817,59.1185 L171.8577,59.0555 L169.1177,51.8655 L160.8467,51.8655 L160.8467,62.4885 L165.3717,62.4885 L165.3717,54.3515 L165.5907,54.3515 L168.9947,62.4885 L174.2467,62.4885 L177.8707,54.3515 L178.0687,54.3515 L178.0687,62.4885 Z" id="Fill-1065"></path>
                <g id="Group-1070" transform="translate(184.762700, 51.000000)">
                    <path d="M5.952,11.6855 L0.192,11.6855 L0.192,0.6685 L9.715,0.6685 C13.427,0.6685 15.231,1.9315 15.231,4.5285 C15.231,6.9355 13.494,8.2085 10.209,8.2085 L5.952,8.2085 L5.952,11.6855 Z M0.388,11.4885 L5.755,11.4885 L5.755,8.0115 L10.209,8.0115 C12.41,8.0115 15.034,7.4075 15.034,4.5285 C15.034,2.0635 13.294,0.8655 9.715,0.8655 L0.388,0.8655 L0.388,11.4885 Z M6.988,5.9305 L5.755,5.9305 L5.755,2.9465 L7.537,2.9465 C9.086,2.9465 9.777,3.3975 9.777,4.4085 C9.777,5.6815 8.754,5.9305 6.988,5.9305 L6.988,5.9305 Z M5.952,5.7335 L6.988,5.7335 C8.926,5.7335 9.58,5.3995 9.58,4.4085 C9.58,3.7515 9.333,3.1435 7.537,3.1435 L5.952,3.1435 L5.952,5.7335 Z" id="Fill-1066"></path>
                    <path d="M24.7759,11.97 C21.5709,11.97 19.3829,11.433 18.0869,10.328 C17.2449,9.61 16.7899,8.881 16.7899,7.091 L16.7899,0.669 L22.3669,0.669 L22.3669,6.701 C22.3669,8.583 23.0569,9.316 24.8309,9.316 C26.6039,9.316 27.2949,8.583 27.2949,6.701 L27.2949,0.669 L32.7619,0.669 L32.7619,7.091 C32.7619,8.881 32.3059,9.609 31.4649,10.328 C30.1689,11.433 27.9809,11.97 24.7759,11.97 L24.7759,11.97 Z M16.9859,0.865 L16.9859,7.091 C16.9859,8.814 17.3999,9.483 18.2139,10.178 C19.4559,11.237 21.6639,11.773 24.7759,11.773 C27.8879,11.773 30.0959,11.237 31.3369,10.178 C32.1519,9.483 32.5659,8.814 32.5659,7.091 L32.5659,0.865 L27.4909,0.865 L27.4909,6.701 C27.4909,8.672 26.6959,9.512 24.8309,9.512 C22.9659,9.512 22.1699,8.672 22.1699,6.701 L22.1699,0.865 L16.9859,0.865 Z" id="Fill-1068"></path>
                </g>
                <path d="M110.5427,46.203 L118.4287,46.203 L118.4287,42.537 L110.5427,42.537 L110.5427,46.203 Z M110.7387,46.007 L118.2317,46.007 L118.2317,42.734 L110.7387,42.734 L110.7387,46.007 Z" id="Fill-1071"></path>
                <path d="M7.736,50.3041 C0.756,50.3041 0.129,48.7061 0.006,46.4491 L0,46.3461 L5.873,46.3461 L5.876,46.4411 C5.894,47.0401 6.046,47.4361 6.352,47.6871 C6.714,47.9671 7.2,48.0991 7.882,48.0991 C8.741,48.0991 10.181,47.9701 10.181,47.1041 C10.181,46.9491 10.112,46.8071 9.976,46.6811 C9.671,46.4011 8.245,46.1261 6.735,45.8331 C4.594,45.4191 2.168,44.9501 1.145,44.2161 C0.526,43.7741 0.17,43.0561 0.17,42.2481 C0.17,39.8391 2.726,38.7181 8.212,38.7181 C14.71,38.7181 15.645,40.5381 15.704,42.3201 L15.707,42.4211 L10.059,42.4211 L10.054,42.3291 C10.021,41.7851 9.821,41.4301 9.427,41.2101 C9.087,41.0111 8.6,40.9231 7.846,40.9231 C6.784,40.9231 6.151,41.2271 6.151,41.7381 C6.151,41.8731 6.212,42.0541 6.348,42.1531 C6.696,42.4261 8.052,42.6871 9.488,42.9631 C11.625,43.3741 14.046,43.8391 15.079,44.5961 C15.807,45.1301 16.162,45.8131 16.162,46.6841 C16.162,49.0861 13.327,50.3041 7.736,50.3041 L7.736,50.3041 Z M0.208,46.5421 C0.307,48.3131 0.543,50.1071 7.736,50.1071 C13.196,50.1071 15.965,48.9551 15.965,46.6841 C15.965,45.6121 15.393,45.0701 14.962,44.7551 C13.966,44.0241 11.462,43.5431 9.451,43.1561 C7.865,42.8511 6.612,42.6101 6.229,42.3101 C6.027,42.1631 5.954,41.9101 5.954,41.7381 C5.954,41.1041 6.661,40.7261 7.846,40.7261 C8.637,40.7261 9.154,40.8221 9.524,41.0391 C9.952,41.2771 10.188,41.6661 10.243,42.2241 L15.503,42.2241 C15.368,39.8751 13.242,38.9141 8.212,38.9141 C0.367,38.9141 0.367,41.4231 0.367,42.2481 C0.367,42.6851 0.483,43.5021 1.259,44.0561 C2.248,44.7651 4.756,45.2501 6.772,45.6401 C8.443,45.9631 9.763,46.2191 10.109,46.5361 C10.287,46.7011 10.378,46.8921 10.378,47.1041 C10.378,47.8721 9.492,48.2961 7.882,48.2961 C7.155,48.2961 6.629,48.1511 6.23,47.8401 C5.891,47.5641 5.717,47.1501 5.683,46.5421 L0.208,46.5421 Z" id="Fill-1072"></path>
                <path d="M36.7974,50.0192 L30.4304,50.0192 L29.4604,48.2212 L22.7494,48.2212 L21.7254,50.0192 L16.0364,50.0192 L22.8944,39.0022 L29.9394,39.0022 L29.9684,39.0492 L36.7974,50.0192 Z M30.5474,49.8222 L36.4434,49.8222 L29.8304,39.1992 L23.0034,39.1992 L16.3904,49.8222 L21.6104,49.8222 L22.6354,48.0242 L29.5784,48.0242 L30.5474,49.8222 Z M28.3844,45.8532 L23.8604,45.8532 L26.1714,41.7752 L28.3844,45.8532 Z M24.1974,45.6562 L28.0544,45.6562 L26.1684,42.1812 L24.1974,45.6562 Z" id="Fill-1074"></path>
                <path d="M55.3651,50.0192 L47.3241,50.0192 L42.7181,42.5062 L42.7181,50.0192 L37.6901,50.0192 L37.6901,39.0022 L45.9881,39.0022 L46.0161,39.0492 L50.3371,46.0952 L50.3371,39.0022 L55.3651,39.0022 L55.3651,50.0192 Z M47.4341,49.8222 L55.1681,49.8222 L55.1681,39.1992 L50.5331,39.1992 L50.5331,46.4522 L50.3251,46.4522 L50.2961,46.4052 L45.8781,39.1992 L37.8871,39.1992 L37.8871,49.8222 L42.5211,49.8222 L42.5211,42.1192 L42.7121,42.1192 L47.4341,49.8222 Z" id="Fill-1075"></path>
                <path d="M65.7155,50.3041 C59.6425,50.3041 56.8145,48.4631 56.8145,44.5111 C56.8145,39.7231 61.6545,38.7181 65.7155,38.7181 C68.9855,38.7181 71.3485,39.2121 72.5475,40.1471 C73.4135,40.8251 73.6835,41.5181 73.7015,43.1161 L73.7035,43.2151 L67.8425,43.2151 L67.8325,43.1281 C67.6905,41.8341 67.0185,41.2821 65.5875,41.2821 C63.2785,41.2821 62.7945,43.0381 62.7945,44.5111 C62.7945,45.9831 63.2785,47.7391 65.5875,47.7391 C67.2165,47.7391 67.9995,47.1221 68.0515,45.7961 L68.0555,45.7011 L73.9255,45.7011 L73.9215,45.8031 C73.8855,46.7591 73.7615,47.7621 72.6945,48.6041 C71.3045,49.7001 68.8265,50.3041 65.7155,50.3041 M65.7155,38.9141 C59.9395,38.9141 57.0105,40.7971 57.0105,44.5111 C57.0105,46.9131 57.9135,50.1071 65.7155,50.1071 C68.7825,50.1071 71.2175,49.5191 72.5725,48.4501 C73.5385,47.6871 73.6805,46.8091 73.7215,45.8981 L68.2425,45.8981 C68.1525,47.2691 67.2825,47.9361 65.5875,47.9361 C63.6595,47.9361 62.5975,46.7201 62.5975,44.5111 C62.5975,42.3021 63.6595,41.0861 65.5875,41.0861 C67.0895,41.0861 67.8425,41.6831 68.0175,43.0191 L73.5035,43.0191 C73.4765,41.5641 73.2185,40.9211 72.4265,40.3021 C71.2625,39.3941 68.9415,38.9141 65.7155,38.9141" id="Fill-1076"></path>
                <path d="M84.8998,50.0192 L79.1398,50.0192 L79.1398,41.8362 L74.8018,41.8362 L74.8018,39.0022 L89.2378,39.0022 L89.2378,41.8362 L84.8998,41.8362 L84.8998,50.0192 Z M79.3358,49.8222 L84.7028,49.8222 L84.7028,41.6402 L89.0408,41.6402 L89.0408,39.1992 L74.9988,39.1992 L74.9988,41.6402 L79.3358,41.6402 L79.3358,49.8222 Z" id="Fill-1078"></path>
                <g id="Group-1085" transform="translate(89.762700, 38.000000)">
                    <path d="M8.9824,12.3041 C5.7774,12.3041 3.5894,11.7671 2.2934,10.6621 C1.4524,9.9441 0.9964,9.2151 0.9964,7.4251 L0.9964,1.0021 L6.5734,1.0021 L6.5734,7.0351 C6.5734,8.9171 7.2644,9.6501 9.0374,9.6501 C10.8104,9.6501 11.5014,8.9171 11.5014,7.0351 L11.5014,1.0021 L16.9694,1.0021 L16.9694,7.4251 C16.9694,9.2151 16.5134,9.9431 15.6714,10.6621 C14.3754,11.7671 12.1874,12.3041 8.9824,12.3041 L8.9824,12.3041 Z M1.1924,1.1991 L1.1924,7.4251 C1.1924,9.1481 1.6064,9.8171 2.4204,10.5121 C3.6624,11.5711 5.8704,12.1071 8.9824,12.1071 C12.0954,12.1071 14.3024,11.5711 15.5434,10.5121 C16.3584,9.8171 16.7724,9.1481 16.7724,7.4251 L16.7724,1.1991 L11.6974,1.1991 L11.6974,7.0351 C11.6974,9.0061 10.9024,9.8461 9.0374,9.8461 C7.1724,9.8461 6.3764,9.0061 6.3764,7.0351 L6.3764,1.1991 L1.1924,1.1991 Z" id="Fill-1079"></path>
                    <path d="M41.9076,12.3041 C35.8346,12.3041 33.0066,10.4631 33.0066,6.5111 C33.0066,1.7231 37.8466,0.7181 41.9076,0.7181 C45.1786,0.7181 47.5406,1.2121 48.7396,2.1471 C49.6056,2.8251 49.8756,3.5181 49.8936,5.1161 L49.8946,5.2151 L44.0336,5.2151 L44.0246,5.1281 C43.8826,3.8341 43.2106,3.2821 41.7796,3.2821 C39.4706,3.2821 38.9856,5.0381 38.9856,6.5111 C38.9856,7.9831 39.4706,9.7391 41.7796,9.7391 C43.4086,9.7391 44.1916,9.1221 44.2436,7.7961 L44.2476,7.7011 L50.1176,7.7011 L50.1136,7.8031 C50.0776,8.7581 49.9536,9.7621 48.8866,10.6041 C47.4966,11.7001 45.0186,12.3041 41.9076,12.3041 M41.9076,0.9141 C36.1316,0.9141 33.2026,2.7971 33.2026,6.5111 C33.2026,8.9131 34.1056,12.1071 41.9076,12.1071 C44.9746,12.1071 47.4096,11.5191 48.7646,10.4501 C49.7306,9.6871 49.8726,8.8091 49.9126,7.8981 L44.4346,7.8981 C44.3446,9.2691 43.4746,9.9361 41.7796,9.9361 C39.8516,9.9361 38.7896,8.7201 38.7896,6.5111 C38.7896,4.3021 39.8516,3.0861 41.7796,3.0861 C43.2816,3.0861 44.0346,3.6831 44.2096,5.0191 L49.6956,5.0191 C49.6686,3.5641 49.4096,2.9211 48.6186,2.3021 C47.4546,1.3941 45.1336,0.9141 41.9076,0.9141" id="Fill-1081"></path>
                    <path d="M60.5007,12.3041 C53.1137,12.3041 51.5627,9.1531 51.5627,6.5111 C51.5627,4.5301 52.4837,2.9031 54.1557,1.9301 C55.2377,1.3001 56.7567,0.7181 60.5007,0.7181 C67.8877,0.7181 69.4387,3.8681 69.4387,6.5111 C69.4387,8.1671 68.8307,9.5151 67.6807,10.4091 C66.0847,11.6671 63.6687,12.3041 60.5007,12.3041 M60.5007,0.9141 C56.8027,0.9141 55.3137,1.4841 54.2547,2.1001 C52.6457,3.0361 51.7587,4.6021 51.7587,6.5111 C51.7587,10.1721 54.7817,12.1071 60.5007,12.1071 C63.6237,12.1071 65.9987,11.4841 67.5597,10.2551 L67.5597,10.2551 C68.6607,9.3991 69.2417,8.1041 69.2417,6.5111 C69.2417,2.8501 66.2197,0.9141 60.5007,0.9141 M60.5007,9.8461 C58.4567,9.8461 57.2357,8.5991 57.2357,6.5111 C57.2357,4.4221 58.4567,3.1761 60.5007,3.1761 C62.5447,3.1761 63.7657,4.4221 63.7657,6.5111 C63.7657,8.5991 62.5447,9.8461 60.5007,9.8461 M60.5007,3.3721 C58.5507,3.3721 57.4327,4.5161 57.4327,6.5111 C57.4327,8.5051 58.5507,9.6501 60.5007,9.6501 C62.4507,9.6501 63.5687,8.5051 63.5687,6.5111 C63.5687,4.5161 62.4507,3.3721 60.5007,3.3721" id="Fill-1083"></path>
                </g>
                <path d="M183.2297,50.0192 L177.8727,50.0192 L177.8727,42.1632 L174.3737,50.0192 L168.8637,50.0192 L165.5687,42.1412 L165.5687,50.0192 L160.6497,50.0192 L160.6497,39.0022 L169.2537,39.0022 L169.2777,39.0662 L171.9667,46.1222 L174.5897,39.0022 L183.2297,39.0022 L183.2297,50.0192 Z M178.0687,49.8222 L183.0327,49.8222 L183.0327,39.1992 L174.7267,39.1992 L172.0537,46.4522 L171.8817,46.4522 L171.8577,46.3892 L169.1177,39.1992 L160.8467,39.1992 L160.8467,49.8222 L165.3717,49.8222 L165.3717,41.6852 L165.5907,41.6852 L168.9947,49.8222 L174.2467,49.8222 L177.8707,41.6852 L178.0687,41.6852 L178.0687,49.8222 Z" id="Fill-1086"></path>
                <g id="Group-1091" transform="translate(184.762700, 39.000000)">
                    <path d="M5.952,11.0192 L0.192,11.0192 L0.192,0.0022 L9.715,0.0022 C13.427,0.0022 15.231,1.2652 15.231,3.8622 C15.231,6.2692 13.494,7.5422 10.209,7.5422 L5.952,7.5422 L5.952,11.0192 Z M0.388,10.8222 L5.755,10.8222 L5.755,7.3452 L10.209,7.3452 C12.41,7.3452 15.034,6.7412 15.034,3.8622 C15.034,1.3972 13.294,0.1992 9.715,0.1992 L0.388,0.1992 L0.388,10.8222 Z M6.988,5.2642 L5.755,5.2642 L5.755,2.2802 L7.537,2.2802 C9.086,2.2802 9.777,2.7312 9.777,3.7422 C9.777,5.0152 8.754,5.2642 6.988,5.2642 L6.988,5.2642 Z M5.952,5.0682 L6.988,5.0682 C8.926,5.0682 9.58,4.7332 9.58,3.7422 C9.58,3.0852 9.333,2.4772 7.537,2.4772 L5.952,2.4772 L5.952,5.0682 Z" id="Fill-1087"></path>
                    <path d="M24.7759,11.3041 C21.5709,11.3041 19.3829,10.7671 18.0869,9.6621 C17.2449,8.9441 16.7899,8.2151 16.7899,6.4251 L16.7899,0.0021 L22.3669,0.0021 L22.3669,6.0351 C22.3669,7.9171 23.0569,8.6501 24.8309,8.6501 C26.6039,8.6501 27.2949,7.9171 27.2949,6.0351 L27.2949,0.0021 L32.7619,0.0021 L32.7619,6.4251 C32.7619,8.2151 32.3059,8.9431 31.4649,9.6621 C30.1689,10.7671 27.9809,11.3041 24.7759,11.3041 L24.7759,11.3041 Z M16.9859,0.1991 L16.9859,6.4251 C16.9859,8.1481 17.3999,8.8171 18.2139,9.5121 C19.4559,10.5711 21.6629,11.1071 24.7759,11.1071 C27.8879,11.1071 30.0959,10.5711 31.3369,9.5121 C32.1519,8.8171 32.5659,8.1481 32.5659,6.4251 L32.5659,0.1991 L27.4909,0.1991 L27.4909,6.0351 C27.4909,8.0061 26.6959,8.8461 24.8309,8.8461 C22.9659,8.8461 22.1699,8.0061 22.1699,6.0351 L22.1699,0.1991 L16.9859,0.1991 Z" id="Fill-1089"></path>
                </g>
                <path d="M110.5427,33.537 L118.4287,33.537 L118.4287,29.871 L110.5427,29.871 L110.5427,33.537 Z M110.7387,33.341 L118.2317,33.341 L118.2317,30.068 L110.7387,30.068 L110.7387,33.341 Z" id="Fill-1092"></path>
                <path d="M7.736,37.6377 C0.756,37.6377 0.129,36.0407 0.006,33.7837 L0,33.6797 L5.873,33.6797 L5.876,33.7747 C5.894,34.3737 6.046,34.7697 6.353,35.0207 C6.714,35.3017 7.2,35.4337 7.882,35.4337 C8.741,35.4337 10.181,35.3037 10.181,34.4377 C10.181,34.2837 10.112,34.1417 9.975,34.0147 C9.671,33.7357 8.245,33.4597 6.736,33.1677 C4.595,32.7537 2.168,32.2847 1.145,31.5497 C0.526,31.1077 0.17,30.3907 0.17,29.5817 C0.17,27.1737 2.726,26.0517 8.212,26.0517 C14.71,26.0517 15.645,27.8727 15.704,29.6537 L15.707,29.7547 L10.059,29.7547 L10.054,29.6627 C10.021,29.1197 9.821,28.7637 9.427,28.5437 C9.091,28.3477 8.589,28.2567 7.846,28.2567 C6.784,28.2567 6.151,28.5607 6.151,29.0727 C6.151,29.2077 6.212,29.3877 6.348,29.4877 C6.696,29.7597 8.052,30.0207 9.488,30.2967 C11.624,30.7077 14.046,31.1727 15.079,31.9307 C15.807,32.4637 16.162,33.1467 16.162,34.0177 C16.162,36.4197 13.327,37.6377 7.736,37.6377 L7.736,37.6377 Z M0.208,33.8767 C0.307,35.6467 0.543,37.4407 7.736,37.4407 C13.196,37.4407 15.965,36.2897 15.965,34.0177 C15.965,32.9467 15.393,32.4037 14.962,32.0897 C13.965,31.3577 11.462,30.8767 9.451,30.4897 C7.864,30.1847 6.612,29.9437 6.229,29.6437 C6.027,29.4967 5.954,29.2437 5.954,29.0727 C5.954,28.4287 6.643,28.0597 7.846,28.0597 C8.636,28.0597 9.154,28.1567 9.524,28.3727 C9.952,28.6117 10.188,28.9997 10.243,29.5587 L15.503,29.5587 C15.368,27.2097 13.242,26.2487 8.212,26.2487 C2.86,26.2487 0.367,27.3077 0.367,29.5817 C0.367,30.0187 0.483,30.8357 1.259,31.3907 C2.248,32.0997 4.757,32.5847 6.773,32.9747 C8.443,33.2977 9.763,33.5527 10.109,33.8697 C10.288,34.0357 10.378,34.2267 10.378,34.4377 C10.378,35.2067 9.492,35.6297 7.882,35.6297 C7.155,35.6297 6.629,35.4847 6.23,35.1747 C5.891,34.8977 5.717,34.4837 5.683,33.8767 L0.208,33.8767 Z" id="Fill-1093"></path>
                <path d="M36.7974,37.3531 L30.4304,37.3531 L29.4604,35.5551 L22.7494,35.5551 L21.7254,37.3531 L16.0364,37.3531 L22.8944,26.3361 L29.9394,26.3361 L29.9684,26.3831 L36.7974,37.3531 Z M30.5474,37.1561 L36.4434,37.1561 L29.8304,26.5331 L23.0034,26.5331 L16.3904,37.1561 L21.6104,37.1561 L22.6354,35.3581 L29.5784,35.3581 L30.5474,37.1561 Z M28.3844,33.1871 L23.8604,33.1871 L26.1714,29.1091 L28.3844,33.1871 Z M24.1974,32.9901 L28.0544,32.9901 L26.1684,29.5151 L24.1974,32.9901 Z" id="Fill-1095"></path>
                <path d="M55.3651,37.3531 L47.3241,37.3531 L42.7181,29.8401 L42.7181,37.3531 L37.6901,37.3531 L37.6901,26.3361 L45.9881,26.3361 L46.0161,26.3831 L50.3371,33.4291 L50.3371,26.3361 L55.3651,26.3361 L55.3651,37.3531 Z M47.4341,37.1561 L55.1681,37.1561 L55.1681,26.5331 L50.5331,26.5331 L50.5331,33.7861 L50.3251,33.7861 L50.2961,33.7391 L45.8781,26.5331 L37.8871,26.5331 L37.8871,37.1561 L42.5211,37.1561 L42.5211,29.4531 L42.7121,29.4531 L47.4341,37.1561 Z" id="Fill-1096"></path>
                <path d="M65.7155,37.6377 C59.6425,37.6377 56.8145,35.7967 56.8145,31.8447 C56.8145,27.0567 61.6545,26.0517 65.7155,26.0517 C68.9855,26.0517 71.3485,26.5457 72.5475,27.4817 C73.4135,28.1587 73.6835,28.8527 73.7015,30.4497 L73.7035,30.5497 L67.8425,30.5497 L67.8325,30.4617 C67.6905,29.1687 67.0185,28.6157 65.5875,28.6157 C63.2785,28.6157 62.7945,30.3717 62.7945,31.8447 C62.7945,33.3177 63.2785,35.0737 65.5875,35.0737 C67.2165,35.0737 67.9995,34.4557 68.0515,33.1297 L68.0555,33.0357 L73.9255,33.0357 L73.9215,33.1377 C73.8855,34.0927 73.7615,35.0957 72.6945,35.9387 C71.3045,37.0337 68.8265,37.6377 65.7155,37.6377 M65.7155,26.2487 C59.9395,26.2487 57.0105,28.1307 57.0105,31.8447 C57.0105,34.2467 57.9135,37.4407 65.7155,37.4407 C68.7825,37.4407 71.2175,36.8527 72.5725,35.7837 C73.5385,35.0217 73.6805,34.1427 73.7215,33.2317 L68.2425,33.2317 C68.1525,34.6027 67.2825,35.2697 65.5875,35.2697 C63.6595,35.2697 62.5975,34.0537 62.5975,31.8447 C62.5975,29.6357 63.6595,28.4197 65.5875,28.4197 C67.0895,28.4197 67.8425,29.0167 68.0175,30.3527 L73.5035,30.3527 C73.4765,28.8977 73.2185,28.2547 72.4265,27.6367 C71.2625,26.7287 68.9415,26.2487 65.7155,26.2487" id="Fill-1097"></path>
                <path d="M84.8998,37.3531 L79.1398,37.3531 L79.1398,29.1701 L74.8018,29.1701 L74.8018,26.3361 L89.2378,26.3361 L89.2378,29.1701 L84.8998,29.1701 L84.8998,37.3531 Z M79.3358,37.1561 L84.7028,37.1561 L84.7028,28.9741 L89.0408,28.9741 L89.0408,26.5331 L74.9988,26.5331 L74.9988,28.9741 L79.3358,28.9741 L79.3358,37.1561 Z" id="Fill-1099"></path>
                <g id="Group-1106" transform="translate(89.762700, 26.000000)">
                    <path d="M8.9824,11.6377 C5.7774,11.6377 3.5894,11.1007 2.2934,9.9957 C1.4524,9.2777 0.9964,8.5487 0.9964,6.7587 L0.9964,0.3367 L6.5734,0.3367 L6.5734,6.3697 C6.5734,8.2507 7.2644,8.9837 9.0374,8.9837 C10.8104,8.9837 11.5014,8.2507 11.5014,6.3697 L11.5014,0.3367 L16.9694,0.3367 L16.9694,6.7587 C16.9694,8.5487 16.5134,9.2777 15.6714,9.9957 C14.3754,11.1007 12.1874,11.6377 8.9824,11.6377 L8.9824,11.6377 Z M1.1924,0.5327 L1.1924,6.7587 C1.1924,8.4827 1.6064,9.1507 2.4204,9.8457 C3.6624,10.9047 5.8704,11.4407 8.9824,11.4407 C12.0944,11.4407 14.3024,10.9047 15.5434,9.8457 C16.3584,9.1507 16.7724,8.4817 16.7724,6.7587 L16.7724,0.5327 L11.6974,0.5327 L11.6974,6.3697 C11.6974,8.3397 10.9024,9.1797 9.0374,9.1797 C7.1724,9.1797 6.3764,8.3397 6.3764,6.3697 L6.3764,0.5327 L1.1924,0.5327 Z" id="Fill-1100"></path>
                    <path d="M41.9076,11.6377 C35.8346,11.6377 33.0066,9.7967 33.0066,5.8447 C33.0066,1.0567 37.8466,0.0517 41.9076,0.0517 C45.1786,0.0517 47.5406,0.5457 48.7396,1.4817 C49.6056,2.1587 49.8756,2.8527 49.8936,4.4497 L49.8946,4.5497 L44.0336,4.5497 L44.0246,4.4617 C43.8826,3.1687 43.2106,2.6157 41.7796,2.6157 C39.4706,2.6157 38.9856,4.3717 38.9856,5.8447 C38.9856,7.3177 39.4706,9.0737 41.7796,9.0737 C43.4086,9.0737 44.1916,8.4557 44.2436,7.1297 L44.2476,7.0357 L50.1176,7.0357 L50.1136,7.1377 C50.0776,8.0927 49.9536,9.0957 48.8866,9.9387 C47.4966,11.0337 45.0186,11.6377 41.9076,11.6377 M41.9076,0.2487 C36.1316,0.2487 33.2026,2.1307 33.2026,5.8447 C33.2026,8.2467 34.1056,11.4407 41.9076,11.4407 C44.9746,11.4407 47.4096,10.8527 48.7646,9.7837 C49.7306,9.0217 49.8726,8.1427 49.9126,7.2317 L44.4346,7.2317 C44.3446,8.6027 43.4746,9.2697 41.7796,9.2697 C39.8516,9.2697 38.7896,8.0537 38.7896,5.8447 C38.7896,3.6357 39.8516,2.4197 41.7796,2.4197 C43.2816,2.4197 44.0346,3.0167 44.2096,4.3527 L49.6956,4.3527 C49.6686,2.8977 49.4096,2.2547 48.6186,1.6367 C47.4546,0.7287 45.1336,0.2487 41.9076,0.2487" id="Fill-1102"></path>
                    <path d="M60.5007,11.6377 C53.1137,11.6377 51.5627,8.4877 51.5627,5.8447 C51.5627,3.8637 52.4837,2.2367 54.1557,1.2637 C55.2377,0.6347 56.7567,0.0517 60.5007,0.0517 C67.8877,0.0517 69.4387,3.2017 69.4387,5.8447 C69.4387,7.5007 68.8307,8.8487 67.6807,9.7437 C66.0847,11.0007 63.6687,11.6377 60.5007,11.6377 M60.5007,0.2487 C56.8027,0.2487 55.3137,0.8187 54.2547,1.4337 C52.6457,2.3697 51.7587,3.9357 51.7587,5.8447 C51.7587,9.5057 54.7817,11.4407 60.5007,11.4407 C63.6237,11.4407 65.9987,10.8177 67.5597,9.5887 L67.5597,9.5887 C68.6607,8.7327 69.2417,7.4377 69.2417,5.8447 C69.2417,2.1837 66.2197,0.2487 60.5007,0.2487 M60.5007,9.1797 C58.4567,9.1797 57.2357,7.9337 57.2357,5.8447 C57.2357,3.7557 58.4567,2.5097 60.5007,2.5097 C62.5447,2.5097 63.7657,3.7557 63.7657,5.8447 C63.7657,7.9337 62.5447,9.1797 60.5007,9.1797 M60.5007,2.7057 C58.5507,2.7057 57.4327,3.8497 57.4327,5.8447 C57.4327,7.8397 58.5507,8.9837 60.5007,8.9837 C62.4507,8.9837 63.5687,7.8397 63.5687,5.8447 C63.5687,3.8497 62.4507,2.7057 60.5007,2.7057" id="Fill-1104"></path>
                </g>
                <path d="M183.2297,37.3531 L177.8727,37.3531 L177.8727,29.4971 L174.3737,37.3531 L168.8637,37.3531 L165.5687,29.4751 L165.5687,37.3531 L160.6497,37.3531 L160.6497,26.3361 L169.2537,26.3361 L169.2777,26.4001 L171.9667,33.4561 L174.5897,26.3361 L183.2297,26.3361 L183.2297,37.3531 Z M178.0687,37.1561 L183.0327,37.1561 L183.0327,26.5331 L174.7267,26.5331 L172.0537,33.7861 L171.8817,33.7861 L171.8577,33.7231 L169.1177,26.5331 L160.8467,26.5331 L160.8467,37.1561 L165.3717,37.1561 L165.3717,29.0191 L165.5907,29.0191 L168.9947,37.1561 L174.2467,37.1561 L177.8707,29.0191 L178.0687,29.0191 L178.0687,37.1561 Z" id="Fill-1107"></path>
                <g id="Group-1112" transform="translate(184.762700, 26.000000)">
                    <path d="M5.952,11.3531 L0.192,11.3531 L0.192,0.3361 L9.715,0.3361 C13.427,0.3361 15.231,1.5991 15.231,4.1961 C15.231,6.6041 13.494,7.8761 10.209,7.8761 L5.952,7.8761 L5.952,11.3531 Z M0.388,11.1561 L5.755,11.1561 L5.755,7.6801 L10.209,7.6801 C12.41,7.6801 15.034,7.0751 15.034,4.1961 C15.034,1.7311 13.294,0.5331 9.715,0.5331 L0.388,0.5331 L0.388,11.1561 Z M6.988,5.5981 L5.755,5.5981 L5.755,2.6141 L7.537,2.6141 C9.086,2.6141 9.777,3.0651 9.777,4.0761 C9.777,5.3491 8.754,5.5981 6.988,5.5981 L6.988,5.5981 Z M5.952,5.4021 L6.988,5.4021 C8.926,5.4021 9.58,5.0671 9.58,4.0761 C9.58,3.4191 9.333,2.8111 7.537,2.8111 L5.952,2.8111 L5.952,5.4021 Z" id="Fill-1108"></path>
                    <path d="M24.7759,11.6377 C21.5709,11.6377 19.3829,11.1007 18.0869,9.9957 C17.2449,9.2777 16.7899,8.5497 16.7899,6.7587 L16.7899,0.3367 L22.3669,0.3367 L22.3669,6.3697 C22.3669,8.2507 23.0569,8.9837 24.8309,8.9837 C26.6039,8.9837 27.2949,8.2507 27.2949,6.3697 L27.2949,0.3367 L32.7619,0.3367 L32.7619,6.7587 C32.7619,8.5487 32.3059,9.2777 31.4649,9.9957 C30.1689,11.1007 27.9809,11.6377 24.7759,11.6377 L24.7759,11.6377 Z M16.9859,0.5327 L16.9859,6.7587 C16.9859,8.4827 17.3999,9.1507 18.2139,9.8457 C19.4559,10.9047 21.6639,11.4407 24.7759,11.4407 C27.8879,11.4407 30.0959,10.9047 31.3369,9.8457 C32.1519,9.1507 32.5659,8.4817 32.5659,6.7587 L32.5659,0.5327 L27.4909,0.5327 L27.4909,6.3697 C27.4909,8.3397 26.6959,9.1797 24.8309,9.1797 C22.9659,9.1797 22.1699,8.3397 22.1699,6.3697 L22.1699,0.5327 L16.9859,0.5327 Z" id="Fill-1110"></path>
                </g>
                <path d="M110.5427,20.871 L118.4287,20.871 L118.4287,17.205 L110.5427,17.205 L110.5427,20.871 Z M110.7387,20.675 L118.2317,20.675 L118.2317,17.402 L110.7387,17.402 L110.7387,20.675 Z" id="Fill-1113"></path>
                <path d="M7.736,24.9717 C0.756,24.9717 0.129,23.3737 0.006,21.1167 L0,21.0137 L5.873,21.0137 L5.876,21.1087 C5.894,21.7077 6.046,22.1037 6.352,22.3547 C6.713,22.6357 7.2,22.7667 7.882,22.7667 C8.741,22.7667 10.181,22.6377 10.181,21.7717 C10.181,21.6177 10.112,21.4757 9.975,21.3487 C9.671,21.0697 8.245,20.7937 6.736,20.5017 C4.595,20.0877 2.168,19.6187 1.145,18.8837 C0.265,18.2567 0.17,17.2987 0.17,16.9157 C0.17,14.5067 2.726,13.3857 8.212,13.3857 C14.71,13.3857 15.645,15.2067 15.704,16.9877 L15.707,17.0887 L10.059,17.0887 L10.054,16.9967 C10.021,16.4537 9.821,16.0977 9.427,15.8777 C9.091,15.6817 8.589,15.5907 7.846,15.5907 C6.784,15.5907 6.151,15.8957 6.151,16.4067 C6.151,16.5417 6.212,16.7217 6.348,16.8217 C6.695,17.0937 8.051,17.3547 9.487,17.6307 C11.624,18.0417 14.046,18.5067 15.079,19.2647 C15.807,19.7977 16.162,20.4807 16.162,21.3517 C16.162,23.7537 13.327,24.9717 7.736,24.9717 L7.736,24.9717 Z M0.208,21.2097 C0.307,22.9807 0.543,24.7747 7.736,24.7747 C13.196,24.7747 15.965,23.6237 15.965,21.3517 C15.965,20.2807 15.393,19.7377 14.962,19.4227 C13.965,18.6917 11.462,18.2107 9.45,17.8237 C7.864,17.5187 6.612,17.2777 6.229,16.9777 C6.027,16.8307 5.954,16.5777 5.954,16.4067 C5.954,15.7627 6.643,15.3937 7.846,15.3937 C8.636,15.3937 9.154,15.4897 9.524,15.7067 C9.952,15.9457 10.188,16.3337 10.243,16.8927 L15.503,16.8927 C15.368,14.5427 13.242,13.5817 8.212,13.5817 C2.86,13.5817 0.367,14.6417 0.367,16.9157 C0.367,17.3527 0.483,18.1697 1.259,18.7247 C2.248,19.4337 4.757,19.9187 6.773,20.3087 C8.443,20.6317 9.763,20.8867 10.109,21.2037 C10.288,21.3697 10.378,21.5607 10.378,21.7717 C10.378,22.5397 9.492,22.9637 7.882,22.9637 C7.154,22.9637 6.629,22.8187 6.23,22.5077 C5.891,22.2317 5.717,21.8177 5.683,21.2097 L0.208,21.2097 Z" id="Fill-1114"></path>
                <path d="M36.7974,24.6873 L30.4304,24.6873 L29.4604,22.8893 L22.7494,22.8893 L21.7254,24.6873 L16.0364,24.6873 L22.8944,13.6703 L29.9394,13.6703 L29.9684,13.7173 L36.7974,24.6873 Z M30.5474,24.4903 L36.4434,24.4903 L29.8304,13.8673 L23.0034,13.8673 L16.3904,24.4903 L21.6104,24.4903 L22.6354,22.6923 L29.5784,22.6923 L30.5474,24.4903 Z M28.3844,20.5213 L23.8604,20.5213 L26.1714,16.4433 L28.3844,20.5213 Z M24.1974,20.3243 L28.0544,20.3243 L26.1684,16.8483 L24.1974,20.3243 Z" id="Fill-1116"></path>
                <path d="M55.3651,24.6873 L47.3241,24.6873 L42.7181,17.1743 L42.7181,24.6873 L37.6901,24.6873 L37.6901,13.6703 L45.9881,13.6703 L46.0161,13.7173 L50.3371,20.7633 L50.3371,13.6703 L55.3651,13.6703 L55.3651,24.6873 Z M47.4341,24.4903 L55.1681,24.4903 L55.1681,13.8673 L50.5331,13.8673 L50.5331,21.1203 L50.3251,21.1203 L50.2961,21.0733 L45.8781,13.8673 L37.8871,13.8673 L37.8871,24.4903 L42.5211,24.4903 L42.5211,16.7873 L42.7121,16.7873 L47.4341,24.4903 Z" id="Fill-1117"></path>
                <path d="M65.7155,24.9717 C59.6425,24.9717 56.8145,23.1307 56.8145,19.1787 C56.8145,14.3907 61.6545,13.3857 65.7155,13.3857 C68.9855,13.3857 71.3485,13.8797 72.5475,14.8147 C73.4135,15.4927 73.6835,16.1867 73.7015,17.7837 L73.7035,17.8837 L67.8425,17.8837 L67.8325,17.7957 C67.6905,16.5027 67.0185,15.9497 65.5875,15.9497 C63.2785,15.9497 62.7945,17.7057 62.7945,19.1787 C62.7945,20.6517 63.2785,22.4067 65.5875,22.4067 C67.2165,22.4067 67.9995,21.7897 68.0515,20.4637 L68.0555,20.3697 L73.9255,20.3697 L73.9215,20.4717 C73.8855,21.4267 73.7615,22.4297 72.6945,23.2727 C71.3045,24.3677 68.8265,24.9717 65.7155,24.9717 M65.7155,13.5817 C59.9395,13.5817 57.0105,15.4657 57.0105,19.1787 C57.0105,21.5807 57.9135,24.7747 65.7155,24.7747 C68.7825,24.7747 71.2175,24.1867 72.5725,23.1177 C73.5385,22.3557 73.6805,21.4767 73.7215,20.5657 L68.2425,20.5657 C68.1525,21.9367 67.2825,22.6037 65.5875,22.6037 C63.6595,22.6037 62.5975,21.3877 62.5975,19.1787 C62.5975,16.9697 63.6595,15.7537 65.5875,15.7537 C67.0895,15.7537 67.8425,16.3507 68.0175,17.6867 L73.5035,17.6867 C73.4765,16.2317 73.2185,15.5897 72.4265,14.9707 C71.2625,14.0617 68.9415,13.5817 65.7155,13.5817" id="Fill-1118"></path>
                <path d="M84.8998,24.6873 L79.1398,24.6873 L79.1398,16.5043 L74.8018,16.5043 L74.8018,13.6703 L89.2378,13.6703 L89.2378,16.5043 L84.8998,16.5043 L84.8998,24.6873 Z M79.3358,24.4903 L84.7028,24.4903 L84.7028,16.3083 L89.0408,16.3083 L89.0408,13.8673 L74.9988,13.8673 L74.9988,16.3083 L79.3358,16.3083 L79.3358,24.4903 Z" id="Fill-1120"></path>
                <g id="Group-1127" transform="translate(89.762700, 13.000000)">
                    <path d="M8.9824,11.9717 C5.7774,11.9717 3.5894,11.4347 2.2934,10.3297 C1.4524,9.6117 0.9964,8.8827 0.9964,7.0927 L0.9964,0.6707 L6.5734,0.6707 L6.5734,6.7027 C6.5734,8.5847 7.2644,9.3177 9.0374,9.3177 C10.8104,9.3177 11.5014,8.5847 11.5014,6.7027 L11.5014,0.6707 L16.9694,0.6707 L16.9694,7.0927 C16.9694,8.8827 16.5134,9.6107 15.6714,10.3297 C14.3754,11.4347 12.1874,11.9717 8.9824,11.9717 L8.9824,11.9717 Z M1.1924,0.8667 L1.1924,7.0927 C1.1924,8.8157 1.6064,9.4847 2.4214,10.1797 C3.6624,11.2387 5.8704,11.7747 8.9824,11.7747 C12.0944,11.7747 14.3024,11.2387 15.5434,10.1797 C16.3584,9.4847 16.7724,8.8157 16.7724,7.0927 L16.7724,0.8667 L11.6974,0.8667 L11.6974,6.7027 C11.6974,8.6737 10.9024,9.5137 9.0374,9.5137 C7.1724,9.5137 6.3764,8.6737 6.3764,6.7027 L6.3764,0.8667 L1.1924,0.8667 Z" id="Fill-1121"></path>
                    <path d="M41.9076,11.9717 C35.8346,11.9717 33.0066,10.1307 33.0066,6.1787 C33.0066,1.3907 37.8466,0.3857 41.9076,0.3857 C45.1786,0.3857 47.5406,0.8797 48.7396,1.8147 C49.6056,2.4927 49.8756,3.1867 49.8936,4.7837 L49.8946,4.8837 L44.0336,4.8837 L44.0246,4.7957 C43.8826,3.5027 43.2106,2.9497 41.7796,2.9497 C39.4706,2.9497 38.9856,4.7057 38.9856,6.1787 C38.9856,7.6517 39.4706,9.4067 41.7796,9.4067 C43.4086,9.4067 44.1916,8.7897 44.2436,7.4637 L44.2476,7.3697 L50.1176,7.3697 L50.1136,7.4717 C50.0776,8.4267 49.9536,9.4297 48.8866,10.2727 C47.4966,11.3677 45.0186,11.9717 41.9076,11.9717 M41.9076,0.5817 C36.1316,0.5817 33.2026,2.4657 33.2026,6.1787 C33.2026,8.5807 34.1056,11.7747 41.9076,11.7747 C44.9746,11.7747 47.4096,11.1867 48.7646,10.1177 C49.7306,9.3557 49.8726,8.4767 49.9126,7.5657 L44.4346,7.5657 C44.3446,8.9367 43.4746,9.6037 41.7796,9.6037 C39.8516,9.6037 38.7896,8.3877 38.7896,6.1787 C38.7896,3.9697 39.8516,2.7537 41.7796,2.7537 C43.2816,2.7537 44.0346,3.3507 44.2096,4.6867 L49.6956,4.6867 C49.6686,3.2317 49.4096,2.5897 48.6186,1.9707 C47.4546,1.0617 45.1336,0.5817 41.9076,0.5817" id="Fill-1123"></path>
                    <path d="M60.5007,11.9717 C53.1137,11.9717 51.5627,8.8217 51.5627,6.1787 C51.5627,4.1977 52.4837,2.5707 54.1557,1.5977 C55.2377,0.9687 56.7557,0.3857 60.5007,0.3857 C67.8877,0.3857 69.4387,3.5357 69.4387,6.1787 C69.4387,7.8347 68.8307,9.1827 67.6807,10.0767 C66.0847,11.3347 63.6687,11.9717 60.5007,11.9717 M60.5007,0.5817 C56.8027,0.5817 55.3127,1.1517 54.2547,1.7677 C52.6457,2.7037 51.7587,4.2707 51.7587,6.1787 C51.7587,9.8397 54.7817,11.7747 60.5007,11.7747 C63.6237,11.7747 65.9987,11.1517 67.5597,9.9227 L67.5597,9.9227 C68.6607,9.0667 69.2417,7.7717 69.2417,6.1787 C69.2417,2.5177 66.2197,0.5817 60.5007,0.5817 M60.5007,9.5137 C58.4567,9.5137 57.2357,8.2667 57.2357,6.1787 C57.2357,4.0907 58.4567,2.8437 60.5007,2.8437 C62.5447,2.8437 63.7657,4.0907 63.7657,6.1787 C63.7657,8.2667 62.5447,9.5137 60.5007,9.5137 M60.5007,3.0397 C58.5507,3.0397 57.4327,4.1837 57.4327,6.1787 C57.4327,8.1737 58.5507,9.3177 60.5007,9.3177 C62.4507,9.3177 63.5687,8.1737 63.5687,6.1787 C63.5687,4.1837 62.4507,3.0397 60.5007,3.0397" id="Fill-1125"></path>
                </g>
                <path d="M183.2297,24.6873 L177.8727,24.6873 L177.8727,16.8313 L174.3737,24.6873 L168.8637,24.6873 L165.5687,16.8093 L165.5687,24.6873 L160.6497,24.6873 L160.6497,13.6703 L169.2537,13.6703 L169.2777,13.7343 L171.9667,20.7903 L174.5897,13.6703 L183.2297,13.6703 L183.2297,24.6873 Z M178.0687,24.4903 L183.0327,24.4903 L183.0327,13.8673 L174.7267,13.8673 L172.0537,21.1203 L171.8817,21.1203 L171.8577,21.0573 L169.1177,13.8673 L160.8467,13.8673 L160.8467,24.4903 L165.3717,24.4903 L165.3717,16.3533 L165.5907,16.3533 L168.9947,24.4903 L174.2467,24.4903 L177.8707,16.3533 L178.0687,16.3533 L178.0687,24.4903 Z" id="Fill-1128"></path>
                <g id="Group-1133" transform="translate(184.762700, 13.000000)">
                    <path d="M5.952,11.6873 L0.192,11.6873 L0.192,0.6703 L9.715,0.6703 C13.427,0.6703 15.231,1.9333 15.231,4.5303 C15.231,6.9373 13.494,8.2103 10.209,8.2103 L5.952,8.2103 L5.952,11.6873 Z M0.388,11.4903 L5.755,11.4903 L5.755,8.0133 L10.209,8.0133 C12.41,8.0133 15.034,7.4093 15.034,4.5303 C15.034,2.0653 13.294,0.8673 9.715,0.8673 L0.388,0.8673 L0.388,11.4903 Z M6.988,5.9323 L5.755,5.9323 L5.755,2.9483 L7.537,2.9483 C9.086,2.9483 9.777,3.3993 9.777,4.4103 C9.777,5.6833 8.754,5.9323 6.988,5.9323 L6.988,5.9323 Z M5.952,5.7353 L6.988,5.7353 C8.926,5.7353 9.58,5.4013 9.58,4.4103 C9.58,3.7533 9.333,3.1453 7.537,3.1453 L5.952,3.1453 L5.952,5.7353 Z" id="Fill-1129"></path>
                    <path d="M24.7759,11.9717 C21.5709,11.9717 19.3829,11.4347 18.0869,10.3297 C17.2449,9.6117 16.7899,8.8827 16.7899,7.0927 L16.7899,0.6707 L22.3669,0.6707 L22.3669,6.7027 C22.3669,8.5847 23.0569,9.3177 24.8309,9.3177 C26.6039,9.3177 27.2949,8.5847 27.2949,6.7027 L27.2949,0.6707 L32.7619,0.6707 L32.7619,7.0927 C32.7619,8.8827 32.3059,9.6107 31.4649,10.3297 C30.1689,11.4347 27.9809,11.9717 24.7759,11.9717 L24.7759,11.9717 Z M16.9859,0.8667 L16.9859,7.0927 C16.9859,8.8157 17.3999,9.4847 18.2139,10.1797 C19.4559,11.2387 21.6639,11.7747 24.7759,11.7747 C27.8879,11.7747 30.0959,11.2387 31.3369,10.1797 C32.1519,9.4847 32.5659,8.8157 32.5659,7.0927 L32.5659,0.8667 L27.4909,0.8667 L27.4909,6.7027 C27.4909,8.6737 26.6959,9.5137 24.8309,9.5137 C22.9659,9.5137 22.1699,8.6737 22.1699,6.7027 L22.1699,0.8667 L16.9859,0.8667 Z" id="Fill-1131"></path>
                </g>
                <path d="M110.5427,8.205 L118.4287,8.205 L118.4287,4.539 L110.5427,4.539 L110.5427,8.205 Z M110.7387,8.008 L118.2317,8.008 L118.2317,4.735 L110.7387,4.735 L110.7387,8.008 Z" id="Fill-1134"></path>
                <path d="M7.736,12.3058 C0.756,12.3058 0.129,10.7078 0.006,8.4508 L0,8.3478 L5.873,8.3478 L5.876,8.4428 C5.894,9.0418 6.046,9.4378 6.352,9.6888 C6.714,9.9688 7.2,10.1008 7.882,10.1008 C8.741,10.1008 10.181,9.9718 10.181,9.1058 C10.181,8.9508 10.112,8.8088 9.976,8.6828 C9.671,8.4028 8.245,8.1278 6.735,7.8348 C4.594,7.4208 2.168,6.9518 1.145,6.2178 C0.526,5.7758 0.17,5.0578 0.17,4.2498 C0.17,1.8408 2.726,0.7198 8.212,0.7198 C14.71,0.7198 15.645,2.5398 15.704,4.3218 L15.707,4.4228 L10.059,4.4228 L10.054,4.3308 C10.021,3.7868 9.821,3.4318 9.427,3.2118 C9.087,3.0128 8.6,2.9248 7.846,2.9248 C6.784,2.9248 6.151,3.2288 6.151,3.7408 C6.151,3.8758 6.212,4.0558 6.348,4.1548 C6.696,4.4278 8.052,4.6888 9.488,4.9648 C11.625,5.3758 14.046,5.8408 15.079,6.5978 C15.807,7.1318 16.162,7.8148 16.162,8.6858 C16.162,11.0878 13.327,12.3058 7.736,12.3058 L7.736,12.3058 Z M0.208,8.5438 C0.307,10.3148 0.543,12.1088 7.736,12.1088 C13.196,12.1088 15.965,10.9568 15.965,8.6858 C15.965,7.6138 15.393,7.0718 14.962,6.7568 C13.966,6.0258 11.462,5.5448 9.451,5.1578 C7.865,4.8528 6.612,4.6118 6.229,4.3118 C6.027,4.1648 5.954,3.9118 5.954,3.7408 C5.954,3.0968 6.643,2.7278 7.846,2.7278 C8.637,2.7278 9.154,2.8238 9.524,3.0408 C9.952,3.2788 10.188,3.6678 10.243,4.2258 L15.503,4.2258 C15.368,1.8768 13.242,0.9158 8.212,0.9158 C0.367,0.9158 0.367,3.4248 0.367,4.2498 C0.367,4.6868 0.483,5.5038 1.259,6.0578 C2.248,6.7668 4.756,7.2518 6.772,7.6418 C8.443,7.9648 9.763,8.2208 10.109,8.5378 C10.287,8.7028 10.378,8.8938 10.378,9.1058 C10.378,9.8738 9.492,10.2978 7.882,10.2978 C7.155,10.2978 6.629,10.1528 6.23,9.8418 C5.891,9.5658 5.717,9.1518 5.683,8.5438 L0.208,8.5438 Z" id="Fill-1135"></path>
                <path d="M36.7974,12.0209 L30.4304,12.0209 L29.4604,10.2229 L22.7494,10.2229 L21.7254,12.0209 L16.0364,12.0209 L22.8944,1.0039 L29.9394,1.0039 L29.9684,1.0509 L36.7974,12.0209 Z M30.5474,11.8239 L36.4434,11.8239 L29.8304,1.2009 L23.0034,1.2009 L16.3904,11.8239 L21.6104,11.8239 L22.6354,10.0259 L29.5784,10.0259 L30.5474,11.8239 Z M28.3844,7.8549 L23.8604,7.8549 L26.1714,3.7769 L28.3844,7.8549 Z M24.1974,7.6589 L28.0544,7.6589 L26.1684,4.1829 L24.1974,7.6589 Z" id="Fill-1137"></path>
                <path d="M55.3651,12.0209 L47.3241,12.0209 L42.7181,4.5079 L42.7181,12.0209 L37.6901,12.0209 L37.6901,1.0039 L45.9881,1.0039 L46.0161,1.0509 L50.3371,8.0969 L50.3371,1.0039 L55.3651,1.0039 L55.3651,12.0209 Z M47.4341,11.8239 L55.1681,11.8239 L55.1681,1.2009 L50.5331,1.2009 L50.5331,8.4539 L50.3251,8.4539 L50.2961,8.4069 L45.8781,1.2009 L37.8871,1.2009 L37.8871,11.8239 L42.5211,11.8239 L42.5211,4.1209 L42.7121,4.1209 L47.4341,11.8239 Z" id="Fill-1138"></path>
                <path d="M65.7155,12.3058 C59.6425,12.3058 56.8145,10.4648 56.8145,6.5128 C56.8145,1.7248 61.6545,0.7198 65.7155,0.7198 C68.9855,0.7198 71.3485,1.2138 72.5475,2.1488 C73.4135,2.8268 73.6835,3.5198 73.7015,5.1178 L73.7035,5.2168 L67.8425,5.2168 L67.8325,5.1298 C67.6905,3.8358 67.0185,3.2838 65.5875,3.2838 C63.2785,3.2838 62.7945,5.0398 62.7945,6.5128 C62.7945,7.9848 63.2785,9.7408 65.5875,9.7408 C67.2165,9.7408 67.9995,9.1238 68.0515,7.7978 L68.0555,7.7028 L73.9255,7.7028 L73.9215,7.8048 C73.8855,8.7608 73.7615,9.7638 72.6945,10.6058 C71.3045,11.7018 68.8265,12.3058 65.7155,12.3058 M65.7155,0.9158 C59.9395,0.9158 57.0105,2.7988 57.0105,6.5128 C57.0105,8.9148 57.9135,12.1088 65.7155,12.1088 C68.7825,12.1088 71.2175,11.5208 72.5725,10.4518 C73.5385,9.6888 73.6805,8.8108 73.7215,7.8998 L68.2425,7.8998 C68.1525,9.2708 67.2825,9.9378 65.5875,9.9378 C63.6595,9.9378 62.5975,8.7218 62.5975,6.5128 C62.5975,4.3038 63.6595,3.0878 65.5875,3.0878 C67.0895,3.0878 67.8425,3.6848 68.0175,5.0208 L73.5035,5.0208 C73.4765,3.5658 73.2175,2.9228 72.4265,2.3038 C71.2625,1.3958 68.9415,0.9158 65.7155,0.9158" id="Fill-1139"></path>
                <path d="M84.8998,12.0209 L79.1398,12.0209 L79.1398,3.8389 L74.8018,3.8389 L74.8018,1.0039 L89.2378,1.0039 L89.2378,3.8389 L84.8998,3.8389 L84.8998,12.0209 Z M79.3358,11.8239 L84.7028,11.8239 L84.7028,3.6419 L89.0408,3.6419 L89.0408,1.2009 L74.9988,1.2009 L74.9988,3.6419 L79.3358,3.6419 L79.3358,11.8239 Z" id="Fill-1141"></path>
                <g id="Group-1148" transform="translate(89.762700, 0.000000)">
                    <path d="M8.9824,12.3058 C5.7774,12.3058 3.5894,11.7688 2.2934,10.6638 C1.4524,9.9458 0.9964,9.2168 0.9964,7.4268 L0.9964,1.0038 L6.5734,1.0038 L6.5734,7.0368 C6.5734,8.9188 7.2644,9.6518 9.0374,9.6518 C10.8104,9.6518 11.5014,8.9188 11.5014,7.0368 L11.5014,1.0038 L16.9694,1.0038 L16.9694,7.4268 C16.9694,9.2168 16.5134,9.9448 15.6714,10.6638 C14.3754,11.7688 12.1874,12.3058 8.9824,12.3058 L8.9824,12.3058 Z M1.1924,1.2008 L1.1924,7.4268 C1.1924,9.1498 1.6064,9.8188 2.4204,10.5138 C3.6624,11.5728 5.8704,12.1088 8.9824,12.1088 C12.0954,12.1088 14.3024,11.5728 15.5434,10.5138 C16.3584,9.8188 16.7724,9.1498 16.7724,7.4268 L16.7724,1.2008 L11.6974,1.2008 L11.6974,7.0368 C11.6974,9.0078 10.9024,9.8478 9.0374,9.8478 C7.1724,9.8478 6.3764,9.0078 6.3764,7.0368 L6.3764,1.2008 L1.1924,1.2008 Z" id="Fill-1142"></path>
                    <path d="M41.9076,12.3058 C35.8346,12.3058 33.0066,10.4648 33.0066,6.5128 C33.0066,1.7248 37.8466,0.7198 41.9076,0.7198 C45.1786,0.7198 47.5406,1.2138 48.7396,2.1488 C49.6056,2.8268 49.8756,3.5198 49.8936,5.1178 L49.8946,5.2168 L44.0336,5.2168 L44.0246,5.1298 C43.8826,3.8358 43.2106,3.2838 41.7796,3.2838 C39.4706,3.2838 38.9856,5.0398 38.9856,6.5128 C38.9856,7.9848 39.4706,9.7408 41.7796,9.7408 C43.4086,9.7408 44.1916,9.1238 44.2436,7.7978 L44.2476,7.7028 L50.1176,7.7028 L50.1136,7.8048 C50.0776,8.7598 49.9536,9.7638 48.8866,10.6058 C47.4966,11.7018 45.0186,12.3058 41.9076,12.3058 M41.9076,0.9158 C36.1316,0.9158 33.2026,2.7988 33.2026,6.5128 C33.2026,8.9148 34.1056,12.1088 41.9076,12.1088 C44.9746,12.1088 47.4096,11.5208 48.7646,10.4518 C49.7306,9.6888 49.8726,8.8108 49.9126,7.8998 L44.4346,7.8998 C44.3446,9.2708 43.4746,9.9378 41.7796,9.9378 C39.8516,9.9378 38.7896,8.7218 38.7896,6.5128 C38.7896,4.3038 39.8516,3.0878 41.7796,3.0878 C43.2816,3.0878 44.0346,3.6848 44.2096,5.0208 L49.6956,5.0208 C49.6686,3.5658 49.4096,2.9228 48.6186,2.3038 C47.4546,1.3958 45.1336,0.9158 41.9076,0.9158" id="Fill-1144"></path>
                    <path d="M60.5007,12.3058 C53.1137,12.3058 51.5627,9.1548 51.5627,6.5128 C51.5627,4.5318 52.4837,2.9048 54.1557,1.9318 C55.2377,1.3018 56.7567,0.7198 60.5007,0.7198 C67.8877,0.7198 69.4387,3.8698 69.4387,6.5128 C69.4387,8.1688 68.8307,9.5168 67.6807,10.4108 C66.0847,11.6688 63.6687,12.3058 60.5007,12.3058 M60.5007,0.9158 C56.8027,0.9158 55.3137,1.4858 54.2547,2.1018 C52.6457,3.0378 51.7587,4.6038 51.7587,6.5128 C51.7587,10.1738 54.7817,12.1088 60.5007,12.1088 C63.6237,12.1088 65.9987,11.4858 67.5597,10.2568 L67.5597,10.2568 C68.6607,9.4008 69.2417,8.1058 69.2417,6.5128 C69.2417,2.8518 66.2197,0.9158 60.5007,0.9158 M60.5007,9.8478 C58.4567,9.8478 57.2357,8.6008 57.2357,6.5128 C57.2357,4.4238 58.4567,3.1778 60.5007,3.1778 C62.5447,3.1778 63.7657,4.4238 63.7657,6.5128 C63.7657,8.6008 62.5447,9.8478 60.5007,9.8478 M60.5007,3.3738 C58.5507,3.3738 57.4327,4.5178 57.4327,6.5128 C57.4327,8.5068 58.5507,9.6518 60.5007,9.6518 C62.4507,9.6518 63.5687,8.5068 63.5687,6.5128 C63.5687,4.5178 62.4507,3.3738 60.5007,3.3738" id="Fill-1146"></path>
                </g>
                <path d="M183.2297,12.0209 L177.8727,12.0209 L177.8727,4.1649 L174.3737,12.0209 L168.8637,12.0209 L165.5687,4.1429 L165.5687,12.0209 L160.6497,12.0209 L160.6497,1.0039 L169.2537,1.0039 L169.2777,1.0679 L171.9667,8.1239 L174.5897,1.0039 L183.2297,1.0039 L183.2297,12.0209 Z M178.0687,11.8239 L183.0327,11.8239 L183.0327,1.2009 L174.7267,1.2009 L172.0537,8.4539 L171.8817,8.4539 L171.8577,8.3909 L169.1177,1.2009 L160.8467,1.2009 L160.8467,11.8239 L165.3717,11.8239 L165.3717,3.6869 L165.5907,3.6869 L168.9947,11.8239 L174.2467,11.8239 L177.8707,3.6869 L178.0687,3.6869 L178.0687,11.8239 Z" id="Fill-1149"></path>
                <g id="Group-1154" transform="translate(184.762700, 1.000000)">
                    <path d="M5.952,11.0209 L0.192,11.0209 L0.192,0.0039 L9.715,0.0039 C13.427,0.0039 15.231,1.2669 15.231,3.8639 C15.231,6.2709 13.494,7.5439 10.209,7.5439 L5.952,7.5439 L5.952,11.0209 Z M0.388,10.8239 L5.755,10.8239 L5.755,7.3469 L10.209,7.3469 C12.41,7.3469 15.034,6.7429 15.034,3.8639 C15.034,1.3989 13.294,0.2009 9.715,0.2009 L0.388,0.2009 L0.388,10.8239 Z M6.988,5.2659 L5.755,5.2659 L5.755,2.2819 L7.537,2.2819 C9.086,2.2819 9.777,2.7329 9.777,3.7439 C9.777,5.0169 8.754,5.2659 6.988,5.2659 L6.988,5.2659 Z M5.952,5.0699 L6.988,5.0699 C8.926,5.0699 9.58,4.7349 9.58,3.7439 C9.58,3.0869 9.333,2.4789 7.537,2.4789 L5.952,2.4789 L5.952,5.0699 Z" id="Fill-1150"></path>
                    <path d="M24.7759,11.3058 C21.5709,11.3058 19.3829,10.7688 18.0869,9.6638 C17.2449,8.9458 16.7899,8.2168 16.7899,6.4268 L16.7899,0.0038 L22.3669,0.0038 L22.3669,6.0368 C22.3669,7.9188 23.0569,8.6518 24.8309,8.6518 C26.6039,8.6518 27.2949,7.9188 27.2949,6.0368 L27.2949,0.0038 L32.7619,0.0038 L32.7619,6.4268 C32.7619,8.2168 32.3059,8.9448 31.4649,9.6638 C30.1689,10.7688 27.9809,11.3058 24.7759,11.3058 L24.7759,11.3058 Z M16.9859,0.2008 L16.9859,6.4268 C16.9859,8.1498 17.3999,8.8188 18.2139,9.5138 C19.4559,10.5728 21.6629,11.1088 24.7759,11.1088 C27.8879,11.1088 30.0959,10.5728 31.3369,9.5138 C32.1519,8.8188 32.5659,8.1498 32.5659,6.4268 L32.5659,0.2008 L27.4909,0.2008 L27.4909,6.0368 C27.4909,8.0078 26.6959,8.8478 24.8309,8.8478 C22.9659,8.8478 22.1699,8.0078 22.1699,6.0368 L22.1699,0.2008 L16.9859,0.2008 Z" id="Fill-1152"></path>
                </g>
            </g>
        </g>
    </g>
</svg>