<?xml version="1.0" encoding="UTF-8" standalone="no"?>
<svg width="97px" height="29px" viewBox="0 0 97 29" version="1.1" xmlns="http://www.w3.org/2000/svg" xmlns:xlink="http://www.w3.org/1999/xlink">
    <!-- Generator: Sketch 39.1 (31720) - http://www.bohemiancoding.com/sketch -->
    <title>Page 1</title>
    <desc>Created with Sketch.</desc>
    <defs>
        <polygon id="path-1" points="14.356 0.0368741722 0 0.0368741722 0 10.2988632 14.356 10.2988632 14.356 0.0368741722"></polygon>
        <polygon id="path-3" points="0.120483036 10.4290588 16.023872 10.4290588 16.023872 0.166958057 0.120483036 0.166958057"></polygon>
    </defs>
    <g id="Page-1" stroke="none" stroke-width="1" fill="none" fill-rule="evenodd">
        <g id="1.0_BOTTOM" transform="translate(-464.000000, -45.000000)">
            <g id="Group-Copy">
                <g id="Page-1" transform="translate(464.000000, 45.000000)">
                    <g id="Group-3" transform="translate(0.000000, 0.149359)">
                        <mask id="mask-2" fill="white">
                            <use xlink:href="#path-1"></use>
                        </mask>
                        <g id="Clip-2"></g>
                        <path d="M5.10353498,6.9096053 C5.11989688,7.44986779 5.25190761,7.8415162 5.5646429,8.0979593 C5.89374008,8.35458864 6.3384861,8.48960771 6.99668047,8.48960771 C8.03398735,8.48960771 9.15347556,8.28717223 9.15347556,7.50387542 C9.15347556,7.32825752 9.07129423,7.17982966 8.93965536,7.05821939 C8.26454131,6.43713169 2.58454706,5.97806687 0.987589036,4.8303117 C0.345570634,4.37124688 0.147926394,3.68274277 0.147926394,3.12888525 C0.147926394,0.995397792 2.53508952,0.0368555489 7.29305386,0.0368555489 C12.3472057,0.0368555489 13.8785302,1.18442448 13.9445356,3.19630167 L9.03838451,3.19630167 C9.00547479,2.65641164 8.79128273,2.31858463 8.42927583,2.11614915 C8.08325896,1.91352743 7.58942726,1.84611102 6.96395668,1.84611102 C5.9102879,1.84611102 5.35045083,2.17034301 5.35045083,2.66982043 C5.35045083,2.81843452 5.41627027,3.00727497 5.5646429,3.11547646 C6.3384861,3.72315537 11.837198,4.15521638 13.4177941,5.31638033 C13.8785302,5.65402111 14.356,6.18050235 14.356,7.12600827 C14.356,9.05650155 12.2815722,10.2988632 6.86522753,10.2988632 C0.411390071,10.2988632 0.0986547824,8.71923323 -7.43722449e-05,6.9096053 L5.10353498,6.9096053 Z" id="Fill-1" fill="#173963" mask="url(#mask-2)"></path>
                    </g>
                    <path d="M25.4837054,6.43808148 L23.6398315,3.03522858 L21.7137763,6.43808148 L25.4837054,6.43808148 Z M20.7422889,0.442676299 L26.9819343,0.442676299 L33.0404832,10.1917977 L27.5252235,10.1917977 L26.6528371,8.57156893 L20.5117349,8.57156893 L19.5898909,10.1917977 L14.6837399,10.1917977 L20.7422889,0.442676299 Z" id="Fill-4" fill="#173963"></path>
                    <polygon id="Fill-6" fill="#173963" points="34.0912887 0.442694923 41.4175126 0.442694923 45.4181815 6.97799013 45.4674531 6.97799013 45.4674531 0.442694923 49.813953 0.442694923 49.813953 10.1918163 42.7182831 10.1918163 38.4706983 3.2512777 38.4374167 3.2512777 38.4374167 10.1918163 34.0912887 10.1918163"></polygon>
                    <path d="M61.2053638,4.0615597 C61.073539,2.85961068 60.4480684,2.31972065 59.0980263,2.31972065 C57.1550514,2.31972065 56.496857,3.69691511 56.496857,5.31714389 C56.496857,6.9375589 57.1550514,8.31475336 59.0980263,8.31475336 C60.6124311,8.31475336 61.3533646,7.73445073 61.4026362,6.47849408 L66.5066174,6.47849408 C66.4737077,7.35621112 66.3582448,8.20692434 65.4364008,8.93602729 C64.1029065,9.989176 61.765015,10.4482408 59.2131173,10.4482408 C53.2532975,10.4482408 51.2941466,8.43636364 51.2941466,5.31714389 C51.2941466,3.00822476 52.5620075,0.186233193 59.2131173,0.186233193 C62.1928413,0.186233193 64.2672691,0.645298013 65.304576,1.45559864 C66.0455095,2.03590126 66.2924253,2.63017138 66.3089732,4.0615597 L61.2053638,4.0615597 Z" id="Fill-8" fill="#173963"></path>
                    <polygon id="Fill-10" fill="#173963" points="71.3769954 2.8192167 67.4750556 2.8192167 67.4750556 0.442694923 80.2838154 0.442694923 80.2838154 2.8192167 76.3818756 2.8192167 76.3818756 10.1918163 71.3769954 10.1918163"></polygon>
                    <g id="Group-14" transform="translate(81.809469, 0.335592)" fill="#173963">
                        <path d="M0.0197272379,0.107102709 L4.85987292,0.107102709 L4.85987292,5.45441638 C4.85987292,7.31749324 5.65007801,7.89835457 7.16485471,7.89835457 C8.6796314,7.89835457 9.4698365,7.31749324 9.4698365,5.45441638 L9.4698365,0.107102709 L14.211253,0.107102709 L14.211253,5.80527971 C14.211253,7.34449705 13.8488743,7.99258856 13.0750311,8.6542751 C11.8733615,9.68060622 9.79893368,10.1126672 7.11558309,10.1126672 C4.43167472,10.1126672 2.35761875,9.68060622 1.15557734,8.6542751 C0.381734138,7.99258856 0.0197272379,7.34449705 0.0197272379,5.80527971 L0.0197272379,0.107102709 Z" id="Fill-12"></path>
                    </g>
                    <path d="M80.6297951,24.2089742 C80.7616199,25.4109232 81.3870905,25.9508132 82.7371326,25.9508132 C84.6801075,25.9508132 85.3383019,24.5736188 85.3383019,22.95339 C85.3383019,21.332975 84.6801075,19.9557805 82.7371326,19.9557805 C81.2227278,19.9557805 80.4817943,20.5360832 80.4325227,21.7920398 L75.3285415,21.7920398 C75.3614512,20.9143228 75.4769141,20.0636096 76.3987581,19.3345066 C77.7322524,18.2813579 80.070144,17.8222931 82.6220416,17.8222931 C88.5818614,17.8222931 90.5410123,19.8341703 90.5410123,22.95339 C90.5410123,25.2623091 89.2731514,28.0843007 82.6220416,28.0843007 C79.6423176,28.0843007 77.5678898,27.6252359 76.5305829,26.8149353 C75.7896494,26.2346326 75.5427336,25.6403625 75.5261857,24.2089742 L80.6297951,24.2089742 Z" id="Fill-15" fill="#173963"></path>
                    <g id="Group-19" transform="translate(57.824420, 17.655279)">
                        <mask id="mask-4" fill="white">
                            <use xlink:href="#path-3"></use>
                        </mask>
                        <g id="Clip-18"></g>
                        <path d="M8.0721775,8.21465302 C9.71840713,8.21465302 10.9204485,7.29652338 10.9204485,5.29824122 C10.9204485,3.29958659 9.71840713,2.38145695 8.0721775,2.38145695 C6.42594786,2.38145695 5.22390646,3.29958659 5.22390646,5.29824122 C5.22390646,7.29652338 6.42594786,8.21465302 8.0721775,8.21465302 M1.66761165,1.85497572 C2.95183439,0.842053381 5.00990033,0.166958057 8.0721775,0.166958057 C13.8838106,0.166958057 16.023872,2.38145695 16.023872,5.29824122 C16.023872,7.18832189 15.1022139,8.5522938 13.735438,9.34881316 C12.5995879,10.0104997 11.1340828,10.4291519 8.0721775,10.4291519 C2.26054437,10.4291519 0.120483036,8.21465302 0.120483036,5.29824122 C0.120483036,3.79925025 0.680134177,2.62430504 1.66761165,1.85497572" id="Fill-17" fill="#173963" mask="url(#mask-4)"></path>
                    </g>
                    <polygon id="Fill-20" fill="#173963" points="56.4645795 27.827839 48.8748919 27.827839 46.3889996 21.2925438 46.3560899 21.2925438 43.952193 27.827839 36.3299676 27.827839 36.3299676 18.0787176 40.972469 18.0787176 40.972469 25.4109046 41.0053788 25.4109046 44.2653002 18.0787176 49.1054459 18.0787176 52.167723 25.4109046 52.2169946 25.4109046 52.2169946 18.0787176 56.4645795 18.0787176"></polygon>
                    <path d="M29.5970297,23.263878 L28.5766425,23.263878 C26.7984021,23.263878 26.1561978,23.5877375 26.1561978,24.5466522 C26.1561978,25.3569528 26.6502154,25.7756051 28.0826249,25.7756051 L29.5970297,25.7756051 L29.5970297,23.263878 Z M34.6019099,27.8278948 L26.1232881,27.8278948 C23.2586552,27.8278948 21.2502327,26.9771816 21.2502327,24.4384507 C21.2502327,22.061929 23.1764738,21.2115882 25.6790999,21.2115882 L29.5970297,21.2115882 L29.5970297,18.0787734 L34.6019099,18.0787734 L34.6019099,27.8278948 Z" id="Fill-22" fill="#173963"></path>
                    <path d="M19.6713471,27.827839 L14.8312015,27.827839 L14.8312015,22.4805253 C14.8312015,20.6174484 14.0409964,20.0365871 12.5262197,20.0365871 C11.011443,20.0365871 10.2212379,20.6174484 10.2212379,22.4805253 L10.2212379,27.827839 L5.47982135,27.827839 L5.47982135,22.129662 C5.47982135,20.5904446 5.84220012,19.9423531 6.61604332,19.2806666 C7.81771286,18.2543355 9.89214069,17.8222745 12.5754913,17.8222745 C15.2593997,17.8222745 17.3334556,18.2543355 18.535497,19.2806666 C19.3093402,19.9423531 19.6713471,20.5904446 19.6713471,22.129662 L19.6713471,27.827839 Z" id="Fill-24" fill="#173963"></path>
                </g>
            </g>
        </g>
    </g>
</svg>
